<?xml version="1.0" encoding="iso-8859-1"?>
<!-- Generator: Adobe Illustrator 19.0.0, SVG Export Plug-In . SVG Version: 6.00 Build 0)  -->
<svg version="1.1" id="Layer_1" xmlns="http://www.w3.org/2000/svg" xmlns:xlink="http://www.w3.org/1999/xlink" x="0px" y="0px"
	 viewBox="0 0 512 512" style="enable-background:new 0 0 512 512;" xml:space="preserve">
<rect x="65.067" y="169.388" style="fill:#E0E0D3;" width="143.83" height="38.995"/>
<rect x="29.163" y="253.507" style="fill:#333E48;" width="41.872" height="202.833"/>
<rect x="29.163" y="253.507" style="opacity:0.2;enable-background:new    ;" width="41.872" height="28.229"/>
<rect x="440.98" y="253.507" style="fill:#333E48;" width="41.872" height="202.833"/>
<rect x="440.98" y="253.507" style="opacity:0.2;enable-background:new    ;" width="41.872" height="28.229"/>
<path style="fill:#D49000;" d="M503.95,221.945c0-8.855-7.245-16.1-16.1-16.1H24.151c-8.855,0-16.1,7.245-16.1,16.1v20.466
	c0,8.855,7.245,16.1,16.1,16.1h463.699c8.855,0,16.1-7.245,16.1-16.1V221.945z"/>
<g>
	<path style="fill:#0055B8;" d="M452.784,205.844c0-13.041-10.573-23.614-23.614-23.614h-79.064
		c-13.041,0-23.614,10.573-23.614,23.614H452.784z"/>
	<polygon style="fill:#0055B8;" points="353.408,81.015 314.258,81.015 303.8,116.436 363.864,116.436 	"/>
</g>
<path style="fill:#1E252B;" d="M487.849,197.794h-28.056c-3.571-13.574-15.945-23.614-30.624-23.614h-31.482V83.57
	c0-19.825-16.128-35.953-35.953-35.953c-16.134,0-29.817,10.683-34.354,25.346h-13.123c-3.568,0-6.711,2.349-7.721,5.77
	l-10.458,35.421c-0.718,2.434-0.246,5.065,1.273,7.099c1.52,2.033,3.91,3.231,6.449,3.231h60.064c2.538,0,4.929-1.198,6.449-3.231
	c1.519-2.034,1.99-4.665,1.272-7.099l-10.457-35.421c-1.01-3.422-4.153-5.77-7.721-5.77h-8.426
	c3.524-5.547,9.709-9.246,16.752-9.246c10.947,0,19.853,8.906,19.853,19.853v90.61h-31.482c-14.679,0-27.053,10.04-30.624,23.614
	H216.95v-28.408c0-4.446-3.603-8.05-8.05-8.05H65.069c-4.447,0-8.05,3.604-8.05,8.05v28.408H24.151
	C10.835,197.794,0,208.628,0,221.945v20.466c0,12.287,9.224,22.451,21.11,23.953v189.969c0,4.446,3.603,8.05,8.05,8.05h41.872
	c4.447,0,8.05-3.604,8.05-8.05v-54.921h353.844v54.921c0,4.446,3.603,8.05,8.05,8.05h41.872c4.446,0,8.05-3.604,8.05-8.05v-189.97
	C502.78,264.858,512,254.694,512,242.412v-20.466C512,208.629,501.165,197.794,487.849,197.794z M347.39,89.065l5.704,19.321H314.57
	l5.704-19.321H347.39z M350.106,190.281h79.064c5.637,0,10.584,3.013,13.315,7.514H336.79
	C339.52,193.295,344.469,190.281,350.106,190.281z M73.118,177.437h127.73v20.357H73.118V177.437z M62.982,448.283H37.21v-181.72
	h25.771C62.982,266.562,62.982,448.283,62.982,448.283z M432.927,385.313H79.082v-118.75h353.844V385.313z M474.798,448.283h-25.771
	v-181.72h25.771V448.283z M495.9,242.412c0,4.439-3.611,8.05-8.05,8.05H24.151c-4.439,0-8.05-3.611-8.05-8.05v-20.466
	c0-4.439,3.611-8.05,8.05-8.05h463.699c4.439,0,8.05,3.611,8.05,8.05V242.412z"/>
<g>
</g>
<g>
</g>
<g>
</g>
<g>
</g>
<g>
</g>
<g>
</g>
<g>
</g>
<g>
</g>
<g>
</g>
<g>
</g>
<g>
</g>
<g>
</g>
<g>
</g>
<g>
</g>
<g>
</g>
</svg>
