<svg width="1440" height="198" viewBox="0 0 1440 198" fill="none" xmlns="http://www.w3.org/2000/svg">
<g style="mix-blend-mode:multiply">
<path d="M656.656 225.997C630.49 219.902 603.626 217.344 576.78 218.39C424.407 222.194 369.103 111.667 227.989 162.024C197.04 172.926 167.021 186.306 138.224 202.036" stroke="#A0D2D6" stroke-width="3.17" stroke-miterlimit="10"/>
<path d="M621.739 219.95C541.597 216.413 518.205 247.107 409.688 206.106C234.227 139.851 143.435 294.345 54.0496 235.126C12.2098 207.437 -29.6299 179.368 -83.7554 179.368" stroke="#A0D2D6" stroke-width="3.17" stroke-miterlimit="10"/>
<path d="M210.417 149.207C210.417 149.207 134.154 70.0199 20.8066 169.251" stroke="#A0D2D6" stroke-width="3.17" stroke-miterlimit="10"/>
<path d="M78.4307 196.674C78.4307 196.674 126.318 97.7853 210.416 149.207" stroke="#A0D2D6" stroke-width="3.17" stroke-miterlimit="10"/>
<path d="M138.642 235.127C138.642 235.127 133.241 159.857 174.32 144.682C180.258 142.484 186.639 141.747 192.921 142.535C199.204 143.323 205.205 145.612 210.416 149.208L227.266 162.177" stroke="#A0D2D6" stroke-width="3.17" stroke-miterlimit="10"/>
<path d="M479.027 135.401C479.027 135.401 406.759 142.438 317.945 85.0061C283.902 62.9844 246.208 65.7229 213.535 88.4673L158.839 122.165" stroke="#A0D2D6" stroke-width="3.17" stroke-miterlimit="10"/>
<path d="M366.174 160.466C349.471 153.039 333.382 144.302 318.059 134.336C284.016 112.315 246.322 115.053 213.649 137.835L204.216 143.655" stroke="#A0D2D6" stroke-width="3.17" stroke-miterlimit="10"/>
<path d="M936.945 77.2091C936.945 77.2091 884.227 75.7638 824.776 127.87C790.924 157.537 753.192 187.964 708.272 198.081C680.458 203.696 651.562 199.672 626.342 186.671C613.067 180.091 600.934 171.457 588.306 163.851C522.427 124.523 441.867 126.463 376.482 165.486" stroke="#A0D2D6" stroke-width="3.17" stroke-miterlimit="10"/>
<path d="M736.722 149.206C736.722 149.206 689.823 149.206 649.239 108.624C617.517 76.9418 564.723 13.5391 474.615 13.5391C394.739 13.5391 294.666 74.3935 294.666 74.3935" stroke="#A0D2D6" stroke-width="3.17" stroke-miterlimit="10"/>
<path d="M649.239 108.625C764.641 79.9853 764.641 136.124 764.641 136.124" stroke="#A0D2D6" stroke-width="3.17" stroke-miterlimit="10"/>
<path d="M326.388 91.0149C366.783 68.1945 397.706 57.4309 431.14 53.3232C479.293 47.466 535.169 53.0189 586.175 98.5076C642.963 149.207 714.623 165.524 755.816 140.687" stroke="#A0D2D6" stroke-width="3.17" stroke-miterlimit="10"/>
<path d="M636.992 95.5403C636.992 95.5403 682.977 74.2413 721.66 71.3507C749.388 69.2588 793.32 69.1067 792.255 121.213" stroke="#A0D2D6" stroke-width="3.17" stroke-miterlimit="10"/>
<path d="M938.808 83.7129C938.808 83.7129 853.607 160.77 897.615 201.276C901.601 204.859 906.184 207.717 911.156 209.72" stroke="#A0D2D6" stroke-width="3.17" stroke-miterlimit="10"/>
<path d="M800.318 215.881C880.651 209.719 912.677 248.704 1018.91 202.074C1064.29 182.144 1105.48 175.45 1145.69 181.27" stroke="#A0D2D6" stroke-width="3.17" stroke-miterlimit="10"/>
<path d="M975.361 190.892C964.288 190.066 953.503 186.972 943.677 181.802C893.165 154.493 927.245 99.6485 939.683 82.4951C940.04 81.9937 940.251 81.4036 940.295 80.7898C940.338 80.176 940.211 79.5623 939.928 79.0159C939.645 78.4696 939.216 78.0118 938.69 77.6929C938.164 77.3741 937.56 77.2064 936.945 77.2084C856.194 76.9421 835.312 99.8006 755.817 140.687C722.86 157.698 685.428 164.039 648.707 158.829C611.431 153.429 578.568 132.396 546.351 113.759C490.172 81.2781 425.396 83.9024 367.582 110.945" stroke="#A0D2D6" stroke-width="3.17" stroke-miterlimit="10"/>
<path d="M1301.86 126.159C1294.48 115.826 1284.8 107.354 1273.57 101.413C1262.35 95.4718 1249.9 92.2245 1237.2 91.928C1216.8 91.1654 1196.57 95.9779 1178.7 105.848C1174.67 108.074 1170.77 110.538 1167.03 113.227C1155.61 121.518 1139.49 133.271 1119.9 144.795" stroke="#A0D2D6" stroke-width="3.17" stroke-miterlimit="10"/>
<path d="M1252 93.6768C1252 93.6768 1304.72 61.1197 1359.87 67.6616C1360.47 67.7285 1361.05 67.9396 1361.56 68.2774C1362.07 68.6152 1362.48 69.0698 1362.78 69.6027C1363.07 70.1357 1363.24 70.7315 1363.25 71.3402C1363.27 71.9488 1363.14 72.5525 1362.87 73.1004C1360.21 78.6153 1356.6 87.5913 1358.16 92.802C1368.46 126.348 1420.08 91.1666 1420.08 91.1666" stroke="#A0D2D6" stroke-width="3.17" stroke-miterlimit="10"/>
<path d="M1359.87 67.6621C1353.78 66.8254 1315.9 75.8775 1290.68 113.303" stroke="#A0D2D6" stroke-width="3.17" stroke-miterlimit="10"/>
<path d="M1267.36 142.171C1267.36 142.171 1236.02 90.3688 1125.87 142.437" stroke="#A0D2D6" stroke-width="3.17" stroke-miterlimit="10"/>
<path d="M1296.46 74.4703C1296.46 74.4703 1224.19 35.5236 1119.82 87.0597C1028.8 131.94 924.088 99.6109 928.462 100.486" stroke="#A0D2D6" stroke-width="3.17" stroke-miterlimit="10"/>
<path d="M554.339 31.758L602.835 16.5444C602.835 16.5444 737.711 -25.4833 839.192 33.9639C919.067 80.6697 1030.44 49.1776 1074.56 33.4315C1101.19 23.8521 1129.87 21.4901 1157.71 26.5853C1185.87 32.6637 1212.57 44.1746 1236.33 60.4736" stroke="#A0D2D6" stroke-width="3.17" stroke-miterlimit="10"/>
<path d="M607.02 66.7868C646.711 51.3046 688.741 42.6625 731.322 41.2279C816.142 38.8318 821.695 91.7371 1015.03 50.3181" stroke="#A0D2D6" stroke-width="3.17" stroke-miterlimit="10"/>
<path d="M1237.2 91.8144C1237.2 91.8144 1196.69 83.7131 1096.89 119.237C1008.38 150.729 928.539 100.486 928.539 100.486" stroke="#A0D2D6" stroke-width="3.17" stroke-miterlimit="10"/>
<path d="M1420.08 16.6582C1420.08 16.6582 1351.35 -2.35878 1290.76 22.5915C1230.17 47.5419 1192.36 37.1585 1192.36 37.1585" stroke="#A0D2D6" stroke-width="3.17" stroke-miterlimit="10"/>
<path d="M1206.96 39.099C1206.96 39.099 1252.11 51.5741 1298.25 39.2892C1372.76 19.4354 1420.19 64.2015 1420.19 64.2015L1437.12 80.1757" stroke="#A0D2D6" stroke-width="3.17" stroke-miterlimit="10"/>
<path d="M1354.66 239.842C1327.23 219.341 1281.1 186.594 1200.42 157.84C1059.34 107.483 995.787 221.015 843.528 213.94C747.715 209.49 742.2 250.909 646.957 223.791" stroke="#A0D2D6" stroke-width="3.17" stroke-miterlimit="10"/>
<path d="M337.761 51.3454C330.42 50.1664 319.39 48.7592 312.125 47.1237C300.134 44.4295 288.31 41.0387 276.713 36.9686C209.085 13.1212 182.916 9.66016 148.532 9.66016" stroke="#A0D2D6" stroke-width="3.17" stroke-miterlimit="10"/>
<path d="M1866.32 225.997C1840.15 219.902 1813.29 217.344 1786.44 218.39C1634.07 222.194 1578.77 111.667 1437.65 162.024C1406.7 172.926 1376.68 186.306 1347.89 202.036" stroke="#A0D2D6" stroke-width="3.17" stroke-miterlimit="10"/>
<path d="M1831.4 219.95C1751.22 216.413 1727.87 247.107 1619.31 206.106C1443.89 139.851 1353.06 294.345 1263.71 235.126C1221.87 207.437 1180.03 179.368 1125.87 179.368" stroke="#A0D2D6" stroke-width="3.17" stroke-miterlimit="10"/>
<path d="M1420.08 149.207C1420.08 149.207 1344.01 70.0198 1230.47 169.327" stroke="#A0D2D6" stroke-width="3.17" stroke-miterlimit="10"/>
<path d="M1288.09 196.674C1288.09 196.674 1335.98 97.7853 1420.08 149.207" stroke="#A0D2D6" stroke-width="3.17" stroke-miterlimit="10"/>
<path d="M1348.27 235.126C1348.27 235.126 1342.9 159.856 1383.95 144.681C1389.89 142.483 1396.28 141.746 1402.56 142.534C1408.85 143.322 1414.86 145.61 1420.08 149.207L1436.93 162.177" stroke="#A0D2D6" stroke-width="3.17" stroke-miterlimit="10"/>
<path d="M1688.69 135.401C1688.69 135.401 1616.42 142.438 1527.61 85.0061C1493.38 62.9844 1455.87 65.7229 1423.2 88.4673L1368.46 122.165" stroke="#A0D2D6" stroke-width="3.17" stroke-miterlimit="10"/>
<path d="M1575.72 160.466C1559.02 153.039 1542.93 144.302 1527.61 134.336C1493.38 112.315 1455.87 115.053 1423.2 137.835L1413.77 143.655" stroke="#A0D2D6" stroke-width="3.17" stroke-miterlimit="10"/>
<path d="M1547.39 51.3454C1540.04 50.1664 1529.01 48.7592 1521.79 47.1237C1509.8 44.4347 1497.97 41.0438 1486.38 36.9686C1418.75 13.1212 1392.58 9.66016 1358.16 9.66016" stroke="#A0D2D6" stroke-width="3.17" stroke-miterlimit="10"/>
<path d="M144.728 239.651C117.266 219.113 71.1659 186.404 -9.2425 157.84C-150.319 107.483 -213.839 221.015 -366.136 213.94C-461.949 209.49 -467.464 250.909 -562.706 223.791" stroke="#A0D2D6" stroke-width="3.17" stroke-miterlimit="10"/>
<path d="M92.3145 126.159C84.9324 115.826 75.2465 107.354 64.0235 101.413C52.8004 95.4718 40.3484 92.2245 27.653 91.928C7.25036 91.1654 -12.9743 95.9779 -30.8465 105.848C-34.8767 108.083 -38.7755 110.546 -42.5236 113.227C-53.9344 121.518 -70.0237 133.271 -89.6123 144.795" stroke="#A0D2D6" stroke-width="3.17" stroke-miterlimit="10"/>
<path d="M42.335 93.6768C42.335 93.6768 95.053 61.1197 150.205 67.6616C150.811 67.7285 151.391 67.9396 151.897 68.2774C152.404 68.6152 152.822 69.0698 153.117 69.6027C153.411 70.1357 153.573 70.7315 153.59 71.3402C153.606 71.9488 153.476 72.5525 153.21 73.1004C150.586 78.6153 146.934 87.5913 148.532 92.802C158.84 126.348 210.416 91.1666 210.416 91.1666" stroke="#A0D2D6" stroke-width="3.17" stroke-miterlimit="10"/>
<path d="M150.205 67.6621C144.119 66.8254 106.274 75.8775 81.0176 113.303" stroke="#A0D2D6" stroke-width="3.17" stroke-miterlimit="10"/>
<path d="M57.701 142.171C57.701 142.171 26.3973 90.3688 -83.7554 142.437" stroke="#A0D2D6" stroke-width="3.17" stroke-miterlimit="10"/>
<path d="M86.7992 74.4703C86.7992 74.4703 14.5305 35.5236 -89.8026 87.0597C-180.861 131.94 -285.575 99.6109 -281.2 100.486" stroke="#A0D2D6" stroke-width="3.17" stroke-miterlimit="10"/>
<path d="M-655.286 31.758L-606.828 16.5444C-606.828 16.5444 -471.952 -25.4833 -370.472 33.9639C-290.596 80.6697 -179.226 49.1776 -135.104 33.4315C-108.478 23.8521 -79.7912 21.4901 -51.957 26.5853C-23.7963 32.6637 2.90895 44.1746 26.6637 60.4736" stroke="#A0D2D6" stroke-width="3.17" stroke-miterlimit="10"/>
<path d="M27.6525 91.8144C27.6525 91.8144 -12.856 83.7131 -112.663 119.237C-201.173 150.729 -281.011 100.486 -281.011 100.486" stroke="#A0D2D6" stroke-width="3.17" stroke-miterlimit="10"/>
<path d="M210.416 16.6582C210.416 16.6582 141.723 -2.35878 81.0934 22.5915C20.4638 47.5419 -17.3062 37.1585 -17.3062 37.1585" stroke="#A0D2D6" stroke-width="3.17" stroke-miterlimit="10"/>
<path d="M-2.77637 39.099C-2.77637 39.099 42.3725 51.5741 88.5104 39.2892C163.023 19.4354 210.454 64.2015 210.454 64.2015L227.685 80.4801" stroke="#A0D2D6" stroke-width="3.17" stroke-miterlimit="10"/>
</g>
</svg>
