<svg xmlns="http://www.w3.org/2000/svg" version="1.1" xmlns:xlink="http://www.w3.org/1999/xlink" xmlns:svgjs="http://svgjs.dev/svgjs" viewBox="0 0 12.94368634224324 14.80147361650746"><g transform="matrix(1,0,0,1,1.152935090066932,10.269751026440527)"><g><path d=" M 0.18 0.9967499999999998 Q 0.0615 0.9089999999999998 0.0525 0.7454999999999998 L 0.366 0.7454999999999998 Q 0.3705 0.8009999999999998 0.399 0.8264999999999998 Q 0.4275 0.8519999999999999 0.47250000000000003 0.8519999999999999 Q 0.513 0.8519999999999999 0.53925 0.8317499999999999 Q 0.5655 0.8114999999999999 0.5655 0.7754999999999999 Q 0.5655 0.7289999999999999 0.522 0.7034999999999998 Q 0.47850000000000004 0.6779999999999998 0.381 0.6464999999999999 Q 0.2775 0.6119999999999999 0.21375 0.5797499999999998 Q 0.15 0.5474999999999999 0.10275000000000001 0.48524999999999985 Q 0.0555 0.4229999999999998 0.0555 0.3224999999999998 Q 0.0555 0.2204999999999998 0.1065 0.14774999999999983 Q 0.1575 0.07499999999999984 0.2475 0.03749999999999987 Q 0.3375 -2.220446049250313e-16 0.4515 -2.220446049250313e-16 Q 0.636 -2.220446049250313e-16 0.74625 0.08624999999999983 Q 0.8565 0.17249999999999988 0.864 0.3284999999999998 L 0.5445 0.3284999999999998 Q 0.543 0.28049999999999986 0.51525 0.25649999999999984 Q 0.4875 0.23249999999999982 0.444 0.23249999999999982 Q 0.41100000000000003 0.23249999999999982 0.39 0.2519999999999998 Q 0.369 0.27149999999999985 0.369 0.3074999999999998 Q 0.369 0.3374999999999998 0.39225 0.35924999999999985 Q 0.41550000000000004 0.3809999999999998 0.45 0.3967499999999998 Q 0.4845 0.41249999999999987 0.552 0.4364999999999998 Q 0.6525 0.47099999999999986 0.71775 0.5047499999999998 Q 0.783 0.5384999999999999 0.83025 0.5992499999999998 Q 0.8775000000000001 0.6599999999999998 0.8775000000000001 0.7529999999999999 Q 0.8775000000000001 0.8474999999999998 0.83025 0.9224999999999999 Q 0.783 0.9974999999999998 0.69375 1.041 Q 0.6045 1.0844999999999998 0.483 1.0844999999999998 Q 0.2985 1.0844999999999998 0.18 0.9967499999999998 M 2.50049267578125 0.016499999999999737 L 2.24099267578125 1.0739999999999998 L 1.87949267578125 1.0739999999999998 L 1.73399267578125 0.4259999999999998 L 1.58549267578125 1.0739999999999998 L 1.22399267578125 1.0739999999999998 L 0.96749267578125 0.016499999999999737 L 1.28549267578125 0.016499999999999737 L 1.40849267578125 0.7394999999999998 L 1.57499267578125 0.016499999999999737 L 1.89749267578125 0.016499999999999737 L 2.05949267578125 0.7334999999999998 L 2.18249267578125 0.016499999999999737 L 2.50049267578125 0.016499999999999737 M 2.915975830078125 0.2519999999999998 L 2.915975830078125 0.4244999999999999 L 3.253475830078125 0.4244999999999999 L 3.253475830078125 0.6479999999999999 L 2.915975830078125 0.6479999999999999 L 2.915975830078125 0.8384999999999998 L 3.2984758300781247 0.8384999999999998 L 3.2984758300781247 1.0739999999999998 L 2.621975830078125 1.0739999999999998 L 2.621975830078125 0.016499999999999737 L 3.2984758300781247 0.016499999999999737 L 3.2984758300781247 0.2519999999999998 L 2.915975830078125 0.2519999999999998 M 3.7349362792968748 0.2519999999999998 L 3.7349362792968748 0.4244999999999999 L 4.072436279296875 0.4244999999999999 L 4.072436279296875 0.6479999999999999 L 3.7349362792968748 0.6479999999999999 L 3.7349362792968748 0.8384999999999998 L 4.117436279296875 0.8384999999999998 L 4.117436279296875 1.0739999999999998 L 3.4409362792968747 1.0739999999999998 L 3.4409362792968747 0.016499999999999737 L 4.117436279296875 0.016499999999999737 L 4.117436279296875 0.2519999999999998 L 3.7349362792968748 0.2519999999999998 M 5.056396728515624 0.016499999999999737 L 5.056396728515624 0.25049999999999983 L 4.774396728515624 0.25049999999999983 L 4.774396728515624 1.0739999999999998 L 4.4803967285156245 1.0739999999999998 L 4.4803967285156245 0.25049999999999983 L 4.201396728515625 0.25049999999999983 L 4.201396728515625 0.016499999999999737 L 5.056396728515624 0.016499999999999737 M 6.242871093749999 0.016499999999999737 L 6.242871093749999 0.25049999999999983 L 5.960871093749999 0.25049999999999983 L 5.960871093749999 1.0739999999999998 L 5.666871093749999 1.0739999999999998 L 5.666871093749999 0.25049999999999983 L 5.387871093749999 0.25049999999999983 L 5.387871093749999 0.016499999999999737 L 6.242871093749999 0.016499999999999737 M 6.583376953124999 1.0147499999999998 Q 6.458876953124999 0.9449999999999998 6.386126953124999 0.8212499999999998 Q 6.313376953124999 0.6974999999999998 6.313376953124999 0.5414999999999999 Q 6.313376953124999 0.38549999999999984 6.386126953124999 0.2617499999999998 Q 6.458876953124999 0.1379999999999998 6.583376953124999 0.06899999999999973 Q 6.707876953124999 -2.220446049250313e-16 6.856376953124999 -2.220446049250313e-16 Q 7.006376953124999 -2.220446049250313e-16 7.130126953124999 0.06899999999999973 Q 7.253876953124999 0.1379999999999998 7.325876953124999 0.2617499999999998 Q 7.3978769531249995 0.38549999999999984 7.3978769531249995 0.5414999999999999 Q 7.3978769531249995 0.6974999999999998 7.325876953124999 0.8212499999999998 Q 7.253876953124999 0.9449999999999998 7.129376953124999 1.0147499999999998 Q 7.004876953124999 1.0844999999999998 6.856376953124999 1.0844999999999998 Q 6.707876953124999 1.0844999999999998 6.583376953124999 1.0147499999999998 M 7.034126953124999 0.7379999999999998 Q 7.099376953124999 0.6644999999999999 7.099376953124999 0.5414999999999999 Q 7.099376953124999 0.41549999999999987 7.034126953124999 0.3427499999999998 Q 6.968876953124999 0.2699999999999998 6.856376953124999 0.2699999999999998 Q 6.7423769531249995 0.2699999999999998 6.677876953124999 0.3427499999999998 Q 6.613376953124999 0.41549999999999987 6.613376953124999 0.5414999999999999 Q 6.613376953124999 0.6659999999999998 6.677876953124999 0.7387499999999998 Q 6.7423769531249995 0.8114999999999999 6.856376953124999 0.8114999999999999 Q 6.968876953124999 0.8114999999999999 7.034126953124999 0.7379999999999998 M 7.760857910156249 1.0147499999999998 Q 7.636357910156249 0.9449999999999998 7.563607910156249 0.8212499999999998 Q 7.490857910156249 0.6974999999999998 7.490857910156249 0.5414999999999999 Q 7.490857910156249 0.38549999999999984 7.563607910156249 0.2617499999999998 Q 7.636357910156249 0.1379999999999998 7.760857910156249 0.06899999999999973 Q 7.885357910156249 -2.220446049250313e-16 8.033857910156248 -2.220446049250313e-16 Q 8.183857910156249 -2.220446049250313e-16 8.30760791015625 0.06899999999999973 Q 8.43135791015625 0.1379999999999998 8.503357910156248 0.2617499999999998 Q 8.57535791015625 0.38549999999999984 8.57535791015625 0.5414999999999999 Q 8.57535791015625 0.6974999999999998 8.503357910156248 0.8212499999999998 Q 8.43135791015625 0.9449999999999998 8.30685791015625 1.0147499999999998 Q 8.182357910156249 1.0844999999999998 8.033857910156248 1.0844999999999998 Q 7.885357910156249 1.0844999999999998 7.760857910156249 1.0147499999999998 M 8.21160791015625 0.7379999999999998 Q 8.276857910156249 0.6644999999999999 8.276857910156249 0.5414999999999999 Q 8.276857910156249 0.41549999999999987 8.21160791015625 0.3427499999999998 Q 8.146357910156249 0.2699999999999998 8.033857910156248 0.2699999999999998 Q 7.919857910156249 0.2699999999999998 7.855357910156249 0.3427499999999998 Q 7.790857910156249 0.41549999999999987 7.790857910156249 0.5414999999999999 Q 7.790857910156249 0.6659999999999998 7.855357910156249 0.7387499999999998 Q 7.919857910156249 0.8114999999999999 8.033857910156248 0.8114999999999999 Q 8.146357910156249 0.8114999999999999 8.21160791015625 0.7379999999999998 M 9.500838867187499 0.016499999999999737 L 9.500838867187499 0.25049999999999983 L 9.218838867187499 0.25049999999999983 L 9.218838867187499 1.0739999999999998 L 8.9248388671875 1.0739999999999998 L 8.9248388671875 0.25049999999999983 L 8.645838867187498 0.25049999999999983 L 8.645838867187498 0.016499999999999737 L 9.500838867187499 0.016499999999999737 M 10.553844726562499 0.016499999999999737 L 10.553844726562499 1.0739999999999998 L 10.259844726562498 1.0739999999999998 L 10.259844726562498 0.6494999999999999 L 9.901344726562499 0.6494999999999999 L 9.901344726562499 1.0739999999999998 L 9.607344726562498 1.0739999999999998 L 9.607344726562498 0.016499999999999737 L 9.901344726562499 0.016499999999999737 L 9.901344726562499 0.4139999999999998 L 10.259844726562498 0.4139999999999998 L 10.259844726562498 0.016499999999999737 L 10.553844726562499 0.016499999999999737 M 0.42746960449218746 1.6492499999999999 Q 0.49271960449218744 1.527 0.6127196044921874 1.4587499999999998 Q 0.7327196044921874 1.3904999999999998 0.8887196044921875 1.3904999999999998 Q 1.0867196044921874 1.3904999999999998 1.2217196044921874 1.4962499999999999 Q 1.3567196044921874 1.6019999999999999 1.3957196044921876 1.7834999999999999 L 1.0792196044921876 1.7834999999999999 Q 1.0507196044921874 1.7235 1.0004696044921875 1.6919999999999997 Q 0.9502196044921875 1.6604999999999999 0.8842196044921875 1.6604999999999999 Q 0.7822196044921874 1.6604999999999999 0.7214696044921874 1.73325 Q 0.6607196044921875 1.806 0.6607196044921875 1.9274999999999998 Q 0.6607196044921875 2.0505 0.7214696044921874 2.12325 Q 0.7822196044921874 2.1959999999999997 0.8842196044921875 2.1959999999999997 Q 0.9502196044921875 2.1959999999999997 1.0004696044921875 2.1645 Q 1.0507196044921874 2.133 1.0792196044921876 2.073 L 1.3957196044921876 2.073 Q 1.3567196044921874 2.2544999999999997 1.2217196044921874 2.3602499999999997 Q 1.0867196044921874 2.4659999999999997 0.8887196044921875 2.4659999999999997 Q 0.7327196044921874 2.4659999999999997 0.6127196044921874 2.39775 Q 0.49271960449218744 2.3295 0.42746960449218746 2.2072499999999997 Q 0.36221960449218743 2.085 0.36221960449218743 1.9274999999999998 Q 0.36221960449218743 1.7714999999999999 0.42746960449218746 1.6492499999999999 M 2.2012130126953124 2.286 L 1.8262130126953124 2.286 L 1.7692130126953123 2.4585 L 1.4602130126953123 2.4585 L 1.8457130126953123 1.4009999999999998 L 2.1847130126953123 1.4009999999999998 L 2.568713012695312 2.4585 L 2.2582130126953124 2.4585 L 2.2012130126953124 2.286 M 2.1277130126953123 2.061 L 2.0137130126953124 1.7189999999999999 L 1.9012130126953124 2.061 L 2.1277130126953123 2.061 M 3.6412203369140625 2.4585 L 3.347220336914062 2.4585 L 2.9557203369140623 1.8675 L 2.9557203369140623 2.4585 L 2.6617203369140623 2.4585 L 2.6617203369140623 1.4009999999999998 L 2.9557203369140623 1.4009999999999998 L 3.347220336914062 1.9994999999999998 L 3.347220336914062 1.4009999999999998 L 3.6412203369140625 1.4009999999999998 L 3.6412203369140625 2.4585 M 4.516492309570312 1.4677499999999999 Q 4.641742309570312 1.5345 4.709242309570312 1.6544999999999999 Q 4.776742309570312 1.7744999999999997 4.776742309570312 1.9289999999999998 Q 4.776742309570312 2.082 4.708492309570312 2.202 Q 4.640242309570312 2.322 4.514992309570312 2.39025 Q 4.3897423095703125 2.4585 4.2247423095703125 2.4585 L 3.806242309570312 2.4585 L 3.806242309570312 1.4009999999999998 L 4.2247423095703125 1.4009999999999998 Q 4.391242309570313 1.4009999999999998 4.516492309570312 1.4677499999999999 M 4.404742309570312 2.1285 Q 4.478242309570312 2.058 4.478242309570312 1.9289999999999998 Q 4.478242309570312 1.7984999999999998 4.404742309570312 1.7272499999999997 Q 4.331242309570312 1.656 4.2022423095703125 1.656 L 4.100242309570312 1.656 L 4.100242309570312 2.199 L 4.2022423095703125 2.199 Q 4.331242309570312 2.199 4.404742309570312 2.1285 M 5.8672203369140625 1.4009999999999998 L 5.495220336914062 2.1225 L 5.495220336914062 2.4585 L 5.199720336914062 2.4585 L 5.199720336914062 2.1225 L 4.827720336914062 1.4009999999999998 L 5.163720336914062 1.4009999999999998 L 5.3497203369140625 1.809 L 5.535720336914062 1.4009999999999998 L 5.8672203369140625 1.4009999999999998 M 6.3336719970703115 2.38125 Q 6.215171997070311 2.2935 6.206171997070312 2.13 L 6.519671997070311 2.13 Q 6.524171997070312 2.1854999999999998 6.552671997070312 2.211 Q 6.581171997070312 2.2365 6.626171997070312 2.2365 Q 6.666671997070312 2.2365 6.692921997070312 2.21625 Q 6.719171997070312 2.1959999999999997 6.719171997070312 2.16 Q 6.719171997070312 2.1134999999999997 6.675671997070312 2.088 Q 6.632171997070312 2.0625 6.534671997070312 2.0309999999999997 Q 6.431171997070312 1.9965 6.367421997070312 1.9642499999999998 Q 6.303671997070312 1.932 6.256421997070312 1.8697499999999998 Q 6.209171997070312 1.8074999999999999 6.209171997070312 1.7069999999999999 Q 6.209171997070312 1.605 6.260171997070311 1.53225 Q 6.3111719970703115 1.4594999999999998 6.401171997070311 1.422 Q 6.491171997070312 1.3844999999999998 6.605171997070312 1.3844999999999998 Q 6.789671997070312 1.3844999999999998 6.899921997070312 1.4707499999999998 Q 7.010171997070312 1.557 7.017671997070312 1.7129999999999999 L 6.698171997070312 1.7129999999999999 Q 6.696671997070312 1.665 6.668921997070312 1.641 Q 6.641171997070312 1.617 6.597671997070312 1.617 Q 6.564671997070311 1.617 6.543671997070311 1.6364999999999998 Q 6.5226719970703115 1.656 6.5226719970703115 1.6919999999999997 Q 6.5226719970703115 1.722 6.5459219970703115 1.74375 Q 6.5691719970703115 1.7654999999999998 6.603671997070312 1.78125 Q 6.6381719970703115 1.797 6.705671997070311 1.8209999999999997 Q 6.806171997070312 1.8555 6.871421997070311 1.8892499999999999 Q 6.936671997070312 1.923 6.983921997070312 1.98375 Q 7.031171997070312 2.0444999999999998 7.031171997070312 2.1374999999999997 Q 7.031171997070312 2.2319999999999998 6.983921997070312 2.307 Q 6.936671997070312 2.382 6.847421997070311 2.4255 Q 6.758171997070312 2.469 6.636671997070311 2.469 Q 6.4521719970703115 2.469 6.3336719970703115 2.38125 M 8.111164672851562 1.4009999999999998 L 8.111164672851562 2.4585 L 7.817164672851562 2.4585 L 7.817164672851562 2.034 L 7.458664672851562 2.034 L 7.458664672851562 2.4585 L 7.164664672851561 2.4585 L 7.164664672851561 1.4009999999999998 L 7.458664672851562 1.4009999999999998 L 7.458664672851562 1.7984999999999998 L 7.817164672851562 1.7984999999999998 L 7.817164672851562 1.4009999999999998 L 8.111164672851562 1.4009999999999998 M 8.510136108398436 2.39925 Q 8.385636108398437 2.3295 8.312886108398436 2.20575 Q 8.240136108398437 2.082 8.240136108398437 1.926 Q 8.240136108398437 1.77 8.312886108398436 1.6462499999999998 Q 8.385636108398437 1.5225 8.510136108398436 1.4534999999999998 Q 8.634636108398437 1.3844999999999998 8.783136108398436 1.3844999999999998 Q 8.933136108398436 1.3844999999999998 9.056886108398437 1.4534999999999998 Q 9.180636108398437 1.5225 9.252636108398436 1.6462499999999998 Q 9.324636108398437 1.77 9.324636108398437 1.926 Q 9.324636108398437 2.082 9.252636108398436 2.20575 Q 9.180636108398437 2.3295 9.056136108398437 2.39925 Q 8.931636108398436 2.469 8.783136108398436 2.469 Q 8.634636108398437 2.469 8.510136108398436 2.39925 M 8.960886108398437 2.1225 Q 9.026136108398436 2.049 9.026136108398436 1.926 Q 9.026136108398436 1.7999999999999998 8.960886108398437 1.7272499999999997 Q 8.895636108398437 1.6544999999999999 8.783136108398436 1.6544999999999999 Q 8.669136108398437 1.6544999999999999 8.604636108398436 1.7272499999999997 Q 8.540136108398437 1.7999999999999998 8.540136108398437 1.926 Q 8.540136108398437 2.0505 8.604636108398436 2.12325 Q 8.669136108398437 2.1959999999999997 8.783136108398436 2.1959999999999997 Q 8.895636108398437 2.1959999999999997 8.960886108398437 2.1225 M 10.244867065429686 1.9282499999999998 Q 10.200617065429686 2.0069999999999997 10.111367065429686 2.0542499999999997 Q 10.022117065429686 2.1014999999999997 9.893117065429687 2.1014999999999997 L 9.747617065429687 2.1014999999999997 L 9.747617065429687 2.4585 L 9.453617065429686 2.4585 L 9.453617065429686 1.4009999999999998 L 9.893117065429687 1.4009999999999998 Q 10.020617065429686 1.4009999999999998 10.109867065429686 1.446 Q 10.199117065429686 1.4909999999999999 10.244117065429686 1.5705 Q 10.289117065429686 1.65 10.289117065429686 1.7534999999999998 Q 10.289117065429686 1.8495 10.244867065429686 1.9282499999999998 M 9.989117065429687 1.7534999999999998 Q 9.989117065429687 1.638 9.864617065429686 1.638 L 9.747617065429687 1.638 L 9.747617065429687 1.8675 L 9.864617065429686 1.8675 Q 9.989117065429687 1.8675 9.989117065429687 1.7534999999999998" fill="#2f0e54" fill-rule="nonzero"></path></g><g><path d=" M 3.753698364257813 2.9490375 L 3.753698364257813 3.0555375000000002 L 3.9254483642578126 3.0555375000000002 L 3.9254483642578126 3.1545375000000004 L 3.753698364257813 3.1545375000000004 L 3.753698364257813 3.2700375000000004 L 3.9479483642578126 3.2700375000000004 L 3.9479483642578126 3.3727875000000003 L 3.625448364257813 3.3727875000000003 L 3.625448364257813 2.8462875000000003 L 3.9479483642578126 2.8462875000000003 L 3.9479483642578126 2.9490375 L 3.753698364257813 2.9490375 M 4.1182100830078125 3.3592875 Q 4.072460083007813 3.3405375000000004 4.045085083007812 3.3037875000000003 Q 4.017710083007813 3.2670375000000003 4.016210083007813 3.2152875 L 4.152710083007813 3.2152875 Q 4.155710083007813 3.2445375000000003 4.172960083007813 3.2599125000000004 Q 4.190210083007813 3.2752875 4.217960083007813 3.2752875 Q 4.246460083007813 3.2752875 4.262960083007813 3.2621625 Q 4.279460083007812 3.2490375000000005 4.279460083007812 3.2257875000000005 Q 4.279460083007812 3.2062875 4.266335083007813 3.1935375 Q 4.253210083007813 3.1807875 4.2340850830078125 3.1725375000000002 Q 4.214960083007813 3.1642875000000004 4.179710083007813 3.1537875000000004 Q 4.128710083007813 3.1380375000000003 4.096460083007813 3.1222875 Q 4.064210083007813 3.1065375000000004 4.040960083007813 3.0757875 Q 4.017710083007813 3.0450375000000003 4.017710083007813 2.9955375 Q 4.017710083007813 2.9220375 4.0709600830078125 2.8804125000000003 Q 4.124210083007813 2.8387875000000005 4.2097100830078125 2.8387875000000005 Q 4.296710083007813 2.8387875000000005 4.3499600830078125 2.8804125000000003 Q 4.403210083007813 2.9220375 4.406960083007813 2.9962875 L 4.268210083007813 2.9962875 Q 4.266710083007813 2.9707875 4.249460083007813 2.9561625000000005 Q 4.232210083007812 2.9415375000000004 4.205210083007813 2.9415375000000004 Q 4.181960083007813 2.9415375000000004 4.167710083007813 2.9539125000000004 Q 4.153460083007813 2.9662875000000004 4.153460083007813 2.9895375000000004 Q 4.153460083007813 3.0150375 4.177460083007813 3.0292875 Q 4.201460083007813 3.0435375000000002 4.252460083007813 3.0600375000000004 Q 4.3034600830078125 3.0772875 4.335335083007813 3.0930375000000003 Q 4.367210083007813 3.1087875 4.390460083007813 3.1387875000000003 Q 4.413710083007813 3.1687875 4.413710083007813 3.2160375 Q 4.413710083007813 3.2610375000000005 4.390835083007813 3.2977875 Q 4.367960083007813 3.3345375 4.324460083007812 3.3562875 Q 4.2809600830078125 3.3780375000000005 4.221710083007813 3.3780375000000005 Q 4.1639600830078125 3.3780375000000005 4.1182100830078125 3.3592875 M 4.871202758789063 2.8462875000000003 L 4.871202758789063 2.9490375 L 4.731702758789063 2.9490375 L 4.731702758789063 3.3727875000000003 L 4.603452758789063 3.3727875000000003 L 4.603452758789063 2.9490375 L 4.463952758789063 2.9490375 L 4.463952758789063 2.8462875000000003 L 4.871202758789063 2.8462875000000003 M 4.9405803222656255 3.3589125 Q 4.919205322265626 3.3390375000000003 4.919205322265626 3.3097875 Q 4.919205322265626 3.2797875000000003 4.9405803222656255 3.2595375000000004 Q 4.961955322265625 3.2392875 4.995705322265625 3.2392875 Q 5.028705322265625 3.2392875 5.050080322265625 3.2595375000000004 Q 5.071455322265625 3.2797875000000003 5.071455322265625 3.3097875 Q 5.071455322265625 3.3390375000000003 5.050080322265625 3.3589125 Q 5.028705322265625 3.3787875 4.995705322265625 3.3787875 Q 4.961955322265625 3.3787875 4.9405803222656255 3.3589125 M 5.312173461914063 3.2512875 Q 5.385673461914063 3.1905375000000005 5.428048461914063 3.1515375000000003 Q 5.470423461914063 3.1125375 5.499673461914063 3.0697875000000003 Q 5.528923461914063 3.0270375000000005 5.528923461914063 2.9865375000000003 Q 5.528923461914063 2.9557875000000005 5.514673461914063 2.9385375000000002 Q 5.500423461914063 2.9212875 5.471923461914063 2.9212875 Q 5.443423461914063 2.9212875 5.427298461914063 2.9426625000000004 Q 5.411173461914063 2.9640375000000003 5.411173461914063 3.0030375000000005 L 5.287423461914063 3.0030375000000005 Q 5.288923461914063 2.9392875000000003 5.314798461914063 2.8965375000000004 Q 5.340673461914063 2.8537875 5.383048461914063 2.8335375000000003 Q 5.425423461914063 2.8132875000000004 5.477173461914063 2.8132875000000004 Q 5.566423461914063 2.8132875000000004 5.611798461914063 2.8590375000000003 Q 5.657173461914063 2.9047875000000003 5.657173461914063 2.9782875000000004 Q 5.657173461914063 3.0585375000000004 5.6024234619140625 3.1271625000000003 Q 5.547673461914063 3.1957875000000002 5.4629234619140625 3.2610375000000005 L 5.665423461914063 3.2610375000000005 L 5.665423461914063 3.3652875000000004 L 5.288923461914063 3.3652875000000004 L 5.288923461914063 3.2700375000000004 Q 5.314423461914063 3.2497875 5.312173461914063 3.2512875 M 5.771536376953125 2.8882875 Q 5.821411376953125 2.8140375000000004 5.932411376953126 2.8140375000000004 Q 6.0434113769531255 2.8140375000000004 6.093286376953126 2.8882875 Q 6.143161376953126 2.9625375000000003 6.143161376953126 3.0915375000000003 Q 6.143161376953126 3.2220375000000003 6.093286376953126 3.2962875000000005 Q 6.0434113769531255 3.3705375 5.932411376953126 3.3705375 Q 5.821411376953125 3.3705375 5.771536376953125 3.2962875000000005 Q 5.721661376953126 3.2220375000000003 5.721661376953126 3.0915375000000003 Q 5.721661376953126 2.9625375000000003 5.771536376953125 2.8882875 M 6.000661376953126 2.9749125000000003 Q 5.984161376953125 2.9340375 5.932411376953126 2.9340375 Q 5.8806613769531255 2.9340375 5.864161376953125 2.9749125000000003 Q 5.847661376953125 3.0157875 5.847661376953125 3.0915375000000003 Q 5.847661376953125 3.1425375000000004 5.853661376953125 3.1759125000000004 Q 5.859661376953126 3.2092875000000003 5.878036376953125 3.2299125 Q 5.896411376953125 3.2505375 5.932411376953126 3.2505375 Q 5.968411376953125 3.2505375 5.986786376953125 3.2299125 Q 6.005161376953126 3.2092875000000003 6.011161376953125 3.1759125000000004 Q 6.017161376953125 3.1425375000000004 6.017161376953125 3.0915375000000003 Q 6.017161376953125 3.0157875 6.000661376953126 2.9749125000000003 M 6.2293945312500005 3.2512875 Q 6.302894531250001 3.1905375000000005 6.3452695312500005 3.1515375000000003 Q 6.38764453125 3.1125375 6.4168945312500005 3.0697875000000003 Q 6.446144531250001 3.0270375000000005 6.446144531250001 2.9865375000000003 Q 6.446144531250001 2.9557875000000005 6.43189453125 2.9385375000000002 Q 6.417644531250001 2.9212875 6.38914453125 2.9212875 Q 6.36064453125 2.9212875 6.3445195312500005 2.9426625000000004 Q 6.328394531250001 2.9640375000000003 6.328394531250001 3.0030375000000005 L 6.2046445312500005 3.0030375000000005 Q 6.2061445312500005 2.9392875000000003 6.232019531250001 2.8965375000000004 Q 6.257894531250001 2.8537875 6.3002695312500006 2.8335375000000003 Q 6.34264453125 2.8132875000000004 6.394394531250001 2.8132875000000004 Q 6.48364453125 2.8132875000000004 6.52901953125 2.8590375000000003 Q 6.57439453125 2.9047875000000003 6.57439453125 2.9782875000000004 Q 6.57439453125 3.0585375000000004 6.51964453125 3.1271625000000003 Q 6.464894531250001 3.1957875000000002 6.38014453125 3.2610375000000005 L 6.582644531250001 3.2610375000000005 L 6.582644531250001 3.3652875000000004 L 6.2061445312500005 3.3652875000000004 L 6.2061445312500005 3.2700375000000004 Q 6.231644531250001 3.2497875 6.2293945312500005 3.2512875 M 6.695882446289063 2.8560375000000002 Q 6.745382446289063 2.8125375000000004 6.8301324462890625 2.8125375000000004 Q 6.886382446289063 2.8125375000000004 6.926507446289063 2.8320375 Q 6.966632446289063 2.8515375 6.987257446289063 2.8852875000000004 Q 7.007882446289063 2.9190375000000004 7.007882446289063 2.9610375 Q 7.007882446289063 3.0105375000000003 6.983132446289063 3.0416625 Q 6.958382446289063 3.0727875000000004 6.9253824462890625 3.0840375000000004 L 6.9253824462890625 3.0870375 Q 6.968132446289063 3.1012875 6.992882446289062 3.1342875 Q 7.0176324462890625 3.1672875000000005 7.0176324462890625 3.2190375 Q 7.0176324462890625 3.2655375 6.9962574462890625 3.3011625 Q 6.974882446289063 3.3367875000000002 6.934007446289063 3.3570375 Q 6.893132446289063 3.3772875000000004 6.836882446289063 3.3772875000000004 Q 6.746882446289063 3.3772875000000004 6.693257446289063 3.3330375 Q 6.639632446289063 3.2887875 6.636632446289063 3.1995375000000004 L 6.7611324462890625 3.1995375000000004 Q 6.7618824462890625 3.2325375000000003 6.779882446289063 3.2516625 Q 6.797882446289063 3.2707875000000004 6.8323824462890625 3.2707875000000004 Q 6.861632446289063 3.2707875000000004 6.8777574462890625 3.2539125 Q 6.893882446289063 3.2370375000000005 6.893882446289063 3.2092875000000003 Q 6.893882446289063 3.1732875000000003 6.871007446289063 3.1571625 Q 6.848132446289063 3.1410375000000004 6.797882446289063 3.1410375000000004 L 6.773882446289063 3.1410375000000004 L 6.773882446289063 3.0367875000000004 L 6.797882446289063 3.0367875000000004 Q 6.836132446289063 3.0367875000000004 6.859757446289063 3.0236625000000004 Q 6.883382446289063 3.0105375000000003 6.883382446289063 2.9767875000000004 Q 6.883382446289063 2.9497875000000002 6.868382446289063 2.9347875 Q 6.8533824462890625 2.9197875000000004 6.827132446289063 2.9197875000000004 Q 6.798632446289063 2.9197875000000004 6.7847574462890625 2.9370375 Q 6.770882446289063 2.9542875000000004 6.768632446289063 2.9797875000000005 L 6.6433824462890625 2.9797875000000005 Q 6.646382446289063 2.8995375 6.695882446289063 2.8560375000000002" fill="#45b0d7" fill-rule="nonzero"></path></g><g clip-path="url(#SvgjsClipPath1002)"><g clip-path="url(#SvgjsClipPath1001ae1acf5b-dcf2-497b-9824-21c33c104812)"><path d=" M 8.925898331943701 -3.743060236364423 C 8.925898331943701 -3.444266135598723 8.683677904035608 -3.2020457076906306 8.38488380326991 -3.2020457076906306 C 8.086089702504209 -3.2020457076906306 7.843869274596116 -3.444266135598723 7.843869274596116 -3.743060236364423 C 7.843869274596116 -4.041854337130123 8.086089702504209 -4.284074765038215 8.38488380326991 -4.284074765038215 C 8.683677904035608 -4.284074765038215 8.925898331943701 -4.041854337130123 8.925898331943701 -3.743060236364423 Z" fill="#e4f0fa" transform="matrix(1,0,0,1,0,0)" fill-rule="nonzero"></path></g><g clip-path="url(#SvgjsClipPath1001ae1acf5b-dcf2-497b-9824-21c33c104812)"><path d=" M 3.6431506077159628 -3.0122076954290575 C 3.6431506077159628 -2.329233651423375 3.08949086421621 -1.775573907923624 2.406516820210529 -1.775573907923624 C 1.723542776204848 -1.775573907923624 1.1698830327050955 -2.329233651423375 1.1698830327050955 -3.0122076954290575 C 1.1698830327050955 -3.695181739434738 1.723542776204848 -4.248841482934491 2.406516820210529 -4.248841482934491 C 3.08949086421621 -4.248841482934491 3.6431506077159628 -3.695181739434738 3.6431506077159628 -3.0122076954290575 Z" fill="#e4f0fa" transform="matrix(1,0,0,1,0,0)" fill-rule="nonzero"></path></g><g clip-path="url(#SvgjsClipPath1001ae1acf5b-dcf2-497b-9824-21c33c104812)"><path d=" M 4.705984601216462 -4.056410807960293 C 5.053082209107364 -3.9741173044892353 5.26774830632958 -3.6260271030177487 5.185454802858522 -3.278929495126846 C 5.103161299387467 -2.9318318872359512 4.755071097915981 -2.7171657900137376 4.407973490025078 -2.7994592934847917 C 4.060875882134177 -2.8817527969558467 3.8462097849119603 -3.2298429984273334 3.928503288383015 -3.5769406063182316 C 4.010796791854073 -3.9240382142091335 4.3588869933255605 -4.13870431143135 4.705984601216462 -4.056410807960293 Z" fill="#45b0d7" transform="matrix(1,0,0,1,0,0)" fill-rule="nonzero"></path></g><g clip-path="url(#SvgjsClipPath1001ae1acf5b-dcf2-497b-9824-21c33c104812)"><path d=" M 6.986095296584399 -3.5636969836472003 C 6.986095296584399 -3.3101314823952332 6.780539843782041 -3.1045760295928746 6.526974342530074 -3.1045760295928746 C 6.405196110249822 -3.1045579883730783 6.288399424306502 -3.152921556824978 6.202282831689503 -3.2390253933180553 C 6.1161662390725 -3.3251292298111323 6.067785369220244 -3.441918750030558 6.067785370556631 -3.5636969836472003 C 6.067785370556631 -3.81730005015861 6.2733712760186595 -4.022885955620643 6.526974342530074 -4.022885955620643 C 6.780550845984468 -4.022848394295469 6.9860952993663075 -3.817273489883501 6.986095296584399 -3.563696983647197 Z" fill="#98e03f" transform="matrix(1,0,0,1,0,0)" fill-rule="nonzero"></path></g><g clip-path="url(#SvgjsClipPath1001ae1acf5b-dcf2-497b-9824-21c33c104812)"><path d=" M 8.751092279807462 -5.746800115695734 C 8.751092279807462 -4.856540951244349 8.029394779053892 -4.13484345049078 7.139135614602508 -4.13484345049078 C 6.248876450151123 -4.13484345049078 5.5271789493975545 -4.856540951244349 5.5271789493975545 -5.746800115695734 C 5.5271789493975545 -6.637059280147119 6.248876450151123 -7.358756780900688 7.139135614602508 -7.358756780900688 C 8.029394779053892 -7.358756780900688 8.751092279807462 -6.637059280147119 8.751092279807462 -5.746800115695734 Z" fill="#e4f0fa" transform="matrix(1,0,0,1,0,0)" fill-rule="nonzero"></path></g><g clip-path="url(#SvgjsClipPath1001ae1acf5b-dcf2-497b-9824-21c33c104812)"><path d=" M 4.825166006168714 -2.730885581952215 C 4.440319556760935 -2.7312978824693577 4.128432183539088 -3.0431548276547904 4.1279823351973315 -3.4280012350044755 C 4.128394706143304 -3.81287420526448 4.440293035908758 -4.124772535029912 4.825166006168737 -4.125184905975858 C 5.210012413518396 -4.124735057634099 5.521869358703834 -3.8128476844122545 5.522281659220977 -3.4280012350044755 C 5.521831883885041 -3.0431813479719034 5.209985893201191 -2.7313353572880956 4.825166006168665 -2.7308855819522115 Z M 4.825166006168714 -4.022681901863284 C 4.496861766429533 -4.022344547120041 4.230792224509324 -3.756305434012951 4.230417321390782 -3.4280012350044755 C 4.230829698887863 -3.099723599578412 4.4968882849987075 -2.8337258685879396 4.8251660061687565 -2.833388586064789 C 5.153406118343375 -2.833763418122662 5.419403823050527 -3.0997611228298148 5.419778655108404 -3.428001235004478 C 5.419403898197704 -3.756252394472149 5.153417120623068 -4.022269598354052 4.825166006168786 -4.022681901863284 Z" fill="#2f0e54" transform="matrix(1,0,0,1,0,0)" fill-rule="nonzero"></path></g><g clip-path="url(#SvgjsClipPath1001ae1acf5b-dcf2-497b-9824-21c33c104812)"><path d=" M 6.053161517946011 -0.9574543767583776 L 4.159406613830381 -0.9574543767583776 C 3.4776604597013754 -0.9582039567139073 2.9251619129965047 -1.5106416488591679 2.924337238464686 -2.192387716285829 L 2.6874988440917744 -6.2406782264199485 C 2.6869348034827434 -6.923431167369443 3.2396798774807603 -7.477515786600845 3.922432183619142 -7.4786043543886445 L 6.290135948157161 -7.4786043543886445 C 6.971919623741613 -7.477817226018182 7.524418195152391 -6.9253186546074055 7.525205323522855 -6.2435349790229555 L 7.288162875392582 -2.1892588920063503 C 7.286027330997176 -1.5085907498671904 6.7338329088470505 -0.9578257013933555 6.053161517946047 -0.9574543767583776 Z M 3.922432183619227 -7.376373421952547 C 3.297265890347404 -7.375623690884456 2.7906764842170566 -6.868973429518821 2.790001848204348 -6.243807050699429 L 3.0268402425772596 -2.195516540565312 C 3.026313758489323 -1.5692617337638337 3.5332885034450054 -1.0610083639783952 4.159542649668499 -1.0599573808709497 L 6.053297553784249 -1.0599573808709497 C 6.678421856547862 -1.060706885113575 7.185008856746334 -1.5672634596663872 7.185795907118255 -2.192387716285829 L 7.422838355248521 -6.246663803302432 C 7.420740691789643 -6.870860352676097 6.914335911905343 -7.375866308332041 6.290135948157151 -7.37623738611431 Z" fill="#2f0e54" transform="matrix(1,0,0,1,0,0)" fill-rule="nonzero"></path></g><g clip-path="url(#SvgjsClipPath1001ae1acf5b-dcf2-497b-9824-21c33c104812)"><path d=" M 6.150495160205528 -7.376373421952547 L 4.0623450432473405 -7.376373421952547 C 4.034058402885457 -7.376373421952547 4.0111275501506185 -7.399304274687386 4.0111275501506185 -7.427590915049272 L 4.0111275501506185 -8.012545019474041 C 4.011127550572123 -8.040831660599126 4.0340584036486575 -8.063762512992271 4.062345044010543 -8.063762512570767 L 6.150495160205528 -8.063762512570767 C 6.178781800567411 -8.063762512570767 6.201712653302254 -8.040831659835929 6.201712653302254 -8.012545019474041 L 6.201712653302254 -7.427590915049272 C 6.201712652880749 -7.399304273924187 6.178781799804215 -7.376373421531043 6.150495159442328 -7.376373421952547 Z M 4.113290464667589 -7.478876426065121 L 6.099413702947035 -7.478876426065121 L 6.099413702947035 -7.96180365181115 L 4.113290464667589 -7.96180365181115 Z" fill="#2f0e54" transform="matrix(1,0,0,1,0,0)" fill-rule="nonzero"></path></g><g clip-path="url(#SvgjsClipPath1001ae1acf5b-dcf2-497b-9824-21c33c104812)"><path d=" M 6.176409987389928 -0.3577403838847477 L 4.036158144386464 -0.3577403838847477 C 4.022568885184755 -0.3577223010141459 4.009531006270362 -0.36311260718502325 3.999921940430192 -0.37272167302519676 C 3.990312874590019 -0.3823307388653703 3.9849225684191407 -0.3953686177797646 3.9849406512897416 -0.408957876981475 L 3.9849406512897416 -1.0088759236124574 C 3.984922596154525 -1.0224714284338106 3.9903107377114027 -1.035516279008407 3.9999178385080794 -1.04513613823908 C 4.009524939304756 -1.054755997469755 4.0225626275763 -1.0601614466171085 4.0361581443864605 -1.0601614346283057 L 6.176409987389928 -1.0601614346283057 C 6.190005504200088 -1.0601614466171156 6.203043192471629 -1.0547559974697567 6.212650293268309 -1.0451361382390854 C 6.222257394064986 -1.035516279008414 6.227645535621863 -1.0224714284338159 6.227627480486653 -1.0088759236124574 L 6.227627480486653 -0.409161930738831 C 6.227699964875972 -0.3955373715715975 6.222333685267863 -0.3824469371318866 6.2127187031415 -0.3727936483038299 C 6.203103721015144 -0.3631403594757714 6.19003472706456 -0.35772207305177695 6.176409987389928 -0.3577403838847477 Z M 4.0873756374831895 -0.46017537007820053 L 6.1251924942931995 -0.46017537007820053 L 6.1251924942931995 -0.9574543767583705 L 4.0873756374831895 -0.9574543767583705 Z" fill="#2f0e54" transform="matrix(1,0,0,1,0,0)" fill-rule="nonzero"></path></g><g clip-path="url(#SvgjsClipPath1001ae1acf5b-dcf2-497b-9824-21c33c104812)"><path d=" M 6.34788316148933 -2.977586574597404 C 6.0663300763204155 -2.978035981816684 5.838198175314919 -3.2061678828221796 5.837748768095636 -3.4877209679910974 C 5.838235502165397 -3.769258555508192 6.066345573972267 -3.9973686273150495 6.347883161489346 -3.997855361384791 C 6.629420749006408 -3.9973686273150397 6.857530820813271 -3.769258555508179 6.858017554883023 -3.4877209679910974 C 6.8575681476637325 -3.20616788282217 6.6294362466582335 -2.9780359818166806 6.34788316148932 -2.977586574597404 Z M 6.34788316148933 -3.8958284827060528 C 6.122491604820917 -3.8958284827060528 5.9397756467743745 -3.713112524659513 5.9397756467743745 -3.4877209679910974 C 5.9397756467743745 -3.262329411322681 6.122491604820917 -3.079613453276142 6.34788316148933 -3.079613453276142 C 6.573274718157745 -3.079613453276142 6.755990676204285 -3.262329411322681 6.755990676204285 -3.4877209679910974 C 6.756008717642392 -3.595969594902483 6.7130197640864395 -3.6997908130336814 6.636482803225899 -3.776340530054415 C 6.559945842365356 -3.852890247075149 6.4561317899044335 -3.895896502128589 6.34788316148946 -3.895896500625172 Z" fill="#2f0e54" transform="matrix(1,0,0,1,0,0)" fill-rule="nonzero"></path></g><g clip-path="url(#SvgjsClipPath1001ae1acf5b-dcf2-497b-9824-21c33c104812)"><path d=" M 6.390870486372635 -1.887055277359921 C 6.16277030427407 -1.8873176556129092 5.9779240059767345 -2.0721639539102448 5.9776616277237435 -2.30026413600881 C 5.97796147533354 -2.528337755014908 6.1627968210954505 -2.7131426752054386 6.390870486372704 -2.7134049767385893 C 6.618933103236617 -2.713142598580613 6.803748948944435 -2.5283267528727977 6.804011327102408 -2.3002641360088134 C 6.803786426994468 -2.0721749569529777 6.618959625314291 -1.8873177260989378 6.390870486372704 -1.8870552773599183 Z M 6.390870486372635 -2.6109019726260128 C 6.219376596904493 -2.6107146130049372 6.080389538007341 -2.471757980346597 6.0801646318363165 -2.3002641360088134 C 6.080351991559291 -2.12873268131336 6.219339076797734 -1.9897151698303626 6.390870486372662 -1.9894902635533782 C 6.562401895947566 -1.9897151698303759 6.701388981185997 -2.1287326813133918 6.701576340908955 -2.300264136008817 C 6.7013514347379495 -2.4717579803465606 6.562364375840813 -2.6107146130049204 6.390870486372675 -2.6109019726260128 Z" fill="#2f0e54" transform="matrix(1,0,0,1,0,0)" fill-rule="nonzero"></path></g><g clip-path="url(#SvgjsClipPath1001ae1acf5b-dcf2-497b-9824-21c33c104812)"><path d=" M 5.106284065888196 -8.512408707080745 C 4.939448264491739 -8.512596053713711 4.8042373259842455 -8.647776566717493 4.804012433322651 -8.814612321727171 C 4.804237325984249 -8.981448076736857 4.939448264491746 -9.116628589740635 5.106284065888206 -9.116815936373596 C 5.273119867284652 -9.116628589740632 5.40833080579215 -8.981448076736848 5.408555698453741 -8.814612321727171 C 5.408330805792146 -8.647776566717486 5.273119867284645 -8.512596053713708 5.10628406588819 -8.512408707080745 Z M 5.106284065888196 -9.01438095018014 C 4.9960015215452405 -9.014268474269535 4.906627913345829 -8.924894866070124 4.906515437435225 -8.81461232172717 C 4.906627913345825 -8.704329777384226 4.996001521545227 -8.614956169184808 5.106284065888186 -8.614843693274198 C 5.216566610231151 -8.614956169184804 5.305940218430563 -8.704329777384213 5.306052694341167 -8.81461232172717 C 5.306052751829028 -8.924974545541073 5.216646232359699 -9.014472389391837 5.1062840659452045 -9.014585003937439 Z" fill="#2f0e54" transform="matrix(1,0,0,1,0,0)" fill-rule="nonzero"></path></g><g clip-path="url(#SvgjsClipPath1001ae1acf5b-dcf2-497b-9824-21c33c104812)"><path d=" M 4.309605837089324 -5.12942395746609 C 4.426913737744097 -4.8445596780659175 4.291082482527084 -4.5185347756464855 4.006218203126911 -4.401226874991717 C 3.7213539237267423 -4.283918974336944 3.3953290213073073 -4.41975022955395 3.278021120652535 -4.704614508954123 C 3.160713219997763 -4.989478788354296 3.296544475214775 -5.315503690773728 3.5814087546149445 -5.4328115914285 C 3.866273034015117 -5.5501194920832715 4.192297936434553 -5.414288236866263 4.309605837089324 -5.12942395746609 Z" fill="#98e03f" transform="matrix(1,0,0,1,0,0)" fill-rule="nonzero"></path></g><g clip-path="url(#SvgjsClipPath1001ae1acf5b-dcf2-497b-9824-21c33c104812)"><path d=" M 3.576152957383593 -4.215988827999936 C 3.239911450041362 -4.21636367952797 2.967427343199556 -4.48884778636978 2.9670524916715215 -4.825089293712007 C 2.967464816773825 -5.1613042381059895 3.239937969039572 -5.433746963442343 3.5761529573836452 -5.434121741504958 C 3.912356899489727 -5.433746890066174 4.184810553737761 -5.16129323581814 4.185185405176548 -4.825089293712007 C 4.184810627113896 -4.488874305367921 3.912367901777511 -4.216401153102203 3.576152957383583 -4.215988827999936 Z M 3.576152957383593 -5.331482701554146 C 3.296491182896705 -5.331220347033842 3.0698249295212117 -5.104614951828137 3.0694874778649757 -4.824953257873765 C 3.0697874496237616 -4.545265000172416 3.2964646619301052 -4.318618218422172 3.5761529573836026 -4.318355796274267 C 3.855814690561228 -4.318655701876739 4.082450513380616 -4.545291524696133 4.082750418983087 -4.824953257873765 C 4.082487996835157 -5.104641553327299 3.855841215084892 -5.331318765633622 3.5761529573835538 -5.331618737392384 Z" fill="#2f0e54" transform="matrix(1,0,0,1,0,0)" fill-rule="nonzero"></path></g><g clip-path="url(#SvgjsClipPath1001ae1acf5b-dcf2-497b-9824-21c33c104812)"><path d=" M 5.571118525148529 -4.9403116486998595 L 5.021465720746603 -5.148718552880965 C 4.912991244603971 -4.999772433923445 4.877596276461937 -4.809799441070723 4.925152347273875 -4.631782367575353 C 4.980824587861983 -4.456117792709566 5.11285243899142 -4.314991467931675 5.284422996061275 -4.247753196228585 L 5.6356675303926105 -4.7191173757243545 L 5.586558592788578 -4.82481722203553 Z" fill="#fa65a3" transform="matrix(1,0,0,1,0,0)" fill-rule="nonzero"></path></g><g clip-path="url(#SvgjsClipPath1001ae1acf5b-dcf2-497b-9824-21c33c104812)"><path d=" M 6.148386604712832 -5.196127042507021 L 6.499631139044171 -5.667423204083674 C 6.671186653329552 -5.600199397966957 6.803211936379546 -5.459100813563845 6.8589017878315675 -5.283462050656019 C 6.9064779395699345 -5.105445749620942 6.871081345852894 -4.9154640319306 6.7625884143588335 -4.766525865350411 L 6.212935609956911 -4.974932769531514 L 6.197495542316865 -5.090563232034084 Z" fill="#fa65a3" transform="matrix(1,0,0,1,0,0)" fill-rule="nonzero"></path></g><g clip-path="url(#SvgjsClipPath1001ae1acf5b-dcf2-497b-9824-21c33c104812)"><path d=" M 6.888149493052811 -4.705649827738763 C 6.88194356541508 -4.705646883474794 6.875789182301102 -4.706776339551892 6.869988708647999 -4.7089827057756 L 6.32026788632695 -4.917389609956704 C 6.302776407557615 -4.924031672651727 6.2902900871650775 -4.939672157485804 6.287687303068872 -4.958200361428201 L 6.273335522134732 -5.0659407453129495 L 6.227423426729299 -5.16449871011661 C 6.219507249610791 -5.181589423362759 6.221596285758517 -5.201644170380933 6.232864860258825 -5.2167364720001235 L 6.584109394590167 -5.6881006514958985 C 6.59738028877134 -5.70600057897609 6.620733564278289 -5.713215859852059 6.64178859000322 -5.705921346305119 C 6.829418664284392 -5.633731135258833 6.973752517086829 -5.479726588621687 7.033639822048688 -5.287815197479648 C 7.0863777365631035 -5.093837463140466 7.047544590882891 -4.886393304281018 6.928212047413996 -4.724626827173011 C 6.918422584870373 -4.712558277759065 6.903689070907528 -4.705579244829294 6.888149493052815 -4.705649827738763 Z M 6.384816891571035 -5.002343990936535 L 6.8681522248317775 -4.819103716829519 C 6.950718076228103 -4.950198468843351 6.974922362777796 -5.109769294833914 6.934945821406793 -5.259451725206956 C 6.888142239965206 -5.407154821959557 6.781875241102852 -5.528655642509902 6.6417205720841 -5.594712048545289 L 6.332919219283116 -5.180346885271373 L 6.369172770173631 -5.102398349960818 C 6.3713380509703095 -5.0976990924951755 6.372782653919246 -5.092700307687749 6.373457899078136 -5.087570443592839 Z" fill="#2f0e54" transform="matrix(1,0,0,1,0,0)" fill-rule="nonzero"></path></g><g clip-path="url(#SvgjsClipPath1001ae1acf5b-dcf2-497b-9824-21c33c104812)"><path d=" M 5.152264179212746 -4.198916330301026 C 5.1465925643379435 -4.198908043886758 5.140959692833582 -4.199850687689528 5.135599789028552 -4.201705064984912 C 4.94797843703319 -4.273886716416132 4.803662658865772 -4.427898710929176 4.743816574902197 -4.619811213810383 C 4.691069656760003 -4.813779060618393 4.729876722982107 -5.0212177360987305 4.849176331617769 -5.182999584117018 C 4.8630743188994705 -5.200422501302764 4.886643848359341 -5.206858055437665 4.907467688302889 -5.198915777190903 L 5.457120492704822 -4.990576890928921 C 5.4746474225543516 -4.983967145558355 5.4871679366581905 -4.968316502928557 5.4897690938820185 -4.949766139457426 L 5.504120874816162 -4.842025755572678 L 5.5499649523024726 -4.743467790769016 C 5.557870198551906 -4.726384230364923 5.555809029542098 -4.70634653669994 5.544591536692059 -4.691230028885504 L 5.1932789844416005 -4.219865849389728 C 5.183702405719 -4.206774516495747 5.168484124704874 -4.199001331500137 5.152264179212752 -4.198916330301026 Z M 4.9089640825235135 -5.088794766136986 C 4.826354147725037 -4.957741635370035 4.802146357664442 -4.798172363412567 4.842170485948501 -4.648514775678668 C 4.88852342129512 -4.500590890620785 4.99482993450904 -4.378910896039111 5.135191681513833 -4.313118416502092 L 5.444129070153056 -4.727619615614248 L 5.407875519262544 -4.805568150924805 C 5.405741022124022 -4.8102788189426 5.404297760413081 -4.81527296264077 5.403590390358036 -4.82039605729278 L 5.392231397865137 -4.905622509949086 Z" fill="#2f0e54" transform="matrix(1,0,0,1,0,0)" fill-rule="nonzero"></path></g><g clip-path="url(#SvgjsClipPath1001ae1acf5b-dcf2-497b-9824-21c33c104812)"><path d=" M 6.32332869268731 -5.186604533830337 C 6.397932074074863 -4.9308644828832975 6.251134155645672 -4.663059526943715 5.995414304613843 -4.588386935177331 C 5.872610479845971 -4.552543594696017 5.740597374509702 -4.566955922506293 5.628420531064896 -4.628452916166449 C 5.516243687620085 -4.689949909826601 5.433093514177363 -4.793493252586439 5.397264723879958 -4.9163013232507975 C 5.361399905230708 -5.039096294391091 5.3757943875769785 -5.1711099046587 5.4372803806985655 -5.283289951030325 C 5.498766373820155 -5.395469997401953 5.602305199650418 -5.478623505828212 5.725111094034299 -5.5144509039846845 C 5.980835276238613 -5.589099742167354 6.248658238711787 -5.442322405143965 6.32332869268731 -5.186604533830337 Z" fill="#fa65a3" transform="matrix(1,0,0,1,0,0)" fill-rule="nonzero"></path></g><g clip-path="url(#SvgjsClipPath1001ae1acf5b-dcf2-497b-9824-21c33c104812)"><path d=" M 5.888490135758526 -4.420314657033889 C 5.6516971291208815 -4.4212935156799125 5.443577184410213 -4.577466412554324 5.376451240629494 -4.804547882138022 C 5.29432173172362 -5.087387046905834 5.456570383355403 -5.3833470849845755 5.739190803291974 -5.466226199329202 C 5.787797798372667 -5.480456014247663 5.838183143586476 -5.487693182014738 5.8888302253541225 -5.487719861770858 C 6.125605519197218 -5.486733349725512 6.3337017245239 -5.330557520857379 6.4008011025640315 -5.103486636666726 C 6.4408512666164786 -4.967693296171804 6.424906504343207 -4.821520728972275 6.3565214372174585 -4.697555695363586 C 6.288767311896366 -4.57323782897561 6.1741336221237155 -4.481158642146905 6.038129557820682 -4.4418083194755456 C 5.98952354571287 -4.427573976111984 5.939137548895557 -4.420336714750947 5.888490135758526 -4.420314657033889 Z M 5.888898243273239 -5.385284875577402 C 5.847941053035485 -5.385260994497884 5.8071964579263184 -5.379397803745805 5.767894365160257 -5.367872288282898 C 5.539499870132195 -5.3009619526261975 5.4083799311409235 -5.061787499047317 5.474805151675799 -4.833251444006304 C 5.5290181013563755 -4.649764570618431 5.697163655263601 -4.5235586427022065 5.888490135758523 -4.5227496432273435 C 5.92944732599628 -4.5227735243068645 5.970191921105447 -4.528636715058942 6.0094940138715085 -4.540162230521849 C 6.119386592859006 -4.571943521840123 6.212009465822018 -4.646345501761234 6.266737783980164 -4.746800668805854 C 6.3220264911086 -4.846950262347265 6.334911230189916 -4.9650685358265685 6.302515209436841 -5.0747830747984395 C 6.248309495235273 -5.258245935891091 6.0801995161192615 -5.384445911991174 5.888898243273245 -5.385284875577401 Z" fill="#2f0e54" transform="matrix(1,0,0,1,0,0)" fill-rule="nonzero"></path></g><g clip-path="url(#SvgjsClipPath1001ae1acf5b-dcf2-497b-9824-21c33c104812)"><path d=" M 7.807683741624724 -0.9915313542370736 L 7.258030937222798 -1.199938258418177 C 7.1495380057287345 -1.0510000918379863 7.114141412011691 -0.8610183741476458 7.161717563750064 -0.6830020731125668 C 7.2173407551506585 -0.5073471526350968 7.349356825035528 -0.3662316982703757 7.5209201946183475 -0.2990409196849111 L 7.872232746868805 -0.770337081261566 L 7.823123809264776 -0.8760369275727378 Z" fill="#fa65a3" transform="matrix(1,0,0,1,0,0)" fill-rule="nonzero"></path></g><g clip-path="url(#SvgjsClipPath1001ae1acf5b-dcf2-497b-9824-21c33c104812)"><path d=" M 8.384883803269908 -1.246938640529513 L 8.736196355520367 -1.71830282002529 C 8.90776691259022 -1.6510645483221928 9.039794763719659 -1.5099382235443013 9.095467004307759 -1.3342736486785123 C 9.143023075119704 -1.1562565751831446 9.10762810697767 -0.9662835823304228 8.999153630835036 -0.8173374633729011 L 8.449500826433109 -1.025744367554008 L 8.43406075879306 -1.1413748300565798 Z" fill="#fa65a3" transform="matrix(1,0,0,1,0,0)" fill-rule="nonzero"></path></g><g clip-path="url(#SvgjsClipPath1001ae1acf5b-dcf2-497b-9824-21c33c104812)"><path d=" M 9.124646691609884 -0.7565974615994957 C 9.118440763972153 -0.7565945173355306 9.112286380858169 -0.7577239734126291 9.106485907205068 -0.7599303396363339 L 8.556833102803141 -0.9683372438174374 C 8.539217274697657 -0.974999198767053 8.526696256388625 -0.990813846109365 8.52425251954506 -1.0094880848845307 L 8.50990073861092 -1.1172284687692793 L 8.463988643205486 -1.2158544514920608 C 8.456072466086987 -1.2329451647382115 8.458161502234713 -1.2529999117563824 8.46943007673502 -1.2680922133755734 L 8.820674611066355 -1.7393203570331073 C 8.833914000537787 -1.7572639629756228 8.857284389996085 -1.764512090838279 8.878353806479408 -1.7572090697614486 C 9.065962909266949 -1.6850246228062504 9.210290974146922 -1.531051304501732 9.270205038524882 -1.3391709388550908 C 9.322966291508802 -1.1451627147053074 9.284105257937325 -0.9376783697630771 9.164709245971062 -0.7759145506293308 C 9.154987121926464 -0.763718659814888 9.140243463705884 -0.7566096633214396 9.124646691609884 -0.7565974615994993 Z M 8.62172219764282 -1.0532916247972697 L 9.104989512984446 -0.8700513506902556 C 9.18758195358635 -1.001160021251712 9.211810589668275 -1.1607535295227853 9.171851127478584 -1.3104673769868116 C 9.125406386105846 -1.4583451301132877 9.019094001154542 -1.579978933271775 8.878761913994124 -1.6457957182442664 L 8.5698245253549 -1.2313625370512291 L 8.606078076245417 -1.153345983821553 C 8.608243357042095 -1.1486467263559126 8.609687959991032 -1.1436479415484841 8.61036320514992 -1.1385180774535746 Z" fill="#2f0e54" transform="matrix(1,0,0,1,0,0)" fill-rule="nonzero"></path></g><g clip-path="url(#SvgjsClipPath1001ae1acf5b-dcf2-497b-9824-21c33c104812)"><path d=" M 7.388761377769825 -0.2500000000000018 C 7.383117927264592 -0.24999610950509243 7.3775118225358 -0.250915143067191 7.372165005504747 -0.25272071676477204 C 7.184523410602416 -0.32489381490006863 7.040183255332849 -0.4789050862838611 6.980313773459266 -0.6708268655902359 C 6.927596461868429 -0.8648054281326321 6.966427912877801 -1.0722405341698042 7.085741548093967 -1.2340152358968766 C 7.099599383562582 -1.2514513300607426 7.123146946162164 -1.257915906241701 7.143964886859967 -1.249999446889877 L 7.693617691261894 -1.0416605606278964 C 7.711144621111424 -1.0350508152573248 7.7236651352152625 -1.0194001726275257 7.7262662924390915 -1.0008498091563993 L 7.74068609129235 -0.8930414073525306 L 7.786530168778665 -0.7944834425488683 C 7.794435415028095 -0.7773998821447723 7.792374246018286 -0.7573621884797923 7.781156753168251 -0.7422456806653575 L 7.429844200917789 -0.2708815011695833 C 7.420217340798838 -0.25782212609675526 7.404985350984538 -0.250080038558691 7.388761377769825 -0.2500000000000018 Z M 7.145529298999708 -1.1398784358359615 C 7.062958955704631 -1.008810563728126 7.038753756350518 -0.849258368800264 7.078735702424689 -0.699598445377644 C 7.125471196624997 -0.5519003805637528 7.231696528942878 -0.4303908277684787 7.3718249159091505 -0.3643381220393085 L 7.680694286629254 -0.7786352673941064 L 7.644440735738739 -0.8565838027046677 C 7.642315063022225 -0.8612977212439361 7.640872174897246 -0.8662905722160801 7.640155606834234 -0.8714117090726496 L 7.628728596422213 -0.9567061796480711 Z" fill="#2f0e54" transform="matrix(1,0,0,1,0,0)" fill-rule="nonzero"></path></g><g clip-path="url(#SvgjsClipPath1001ae1acf5b-dcf2-497b-9824-21c33c104812)"><path d=" M 8.559825891244387 -1.2375521676910717 C 8.595690709893628 -1.1147571965507819 8.581296227547355 -0.9827435862831759 8.519810234425771 -0.8705635399115472 C 8.458324241304181 -0.7583834935399221 8.354785415473916 -0.6752299851136634 8.231979521090034 -0.6394025869571873 C 8.10913025992596 -0.6034700424610477 7.977037167006604 -0.6178279875608634 7.864777085643763 -0.6793158957618743 C 7.7525170042809215 -0.7408038039628835 7.669291981906935 -0.8443814629214685 7.633421832841437 -0.9672489571115381 C 7.597473002230434 -1.0901075709675982 7.611831780109188 -1.2222170508308565 7.673336010447777 -1.334483640123442 C 7.734840240786359 -1.4467502294160246 7.838445809011213 -1.5299666665226317 7.961336220914907 -1.5658066453601327 C 8.084231468306683 -1.6017406671186434 8.216371657100105 -1.5873333468987836 8.328635596949177 -1.5257597847085753 C 8.440899536798256 -1.464186222518367 8.524072912874242 -1.3605002066705199 8.559825891244387 -1.2375521676910717 Z" fill="#fa65a3" transform="matrix(1,0,0,1,0,0)" fill-rule="nonzero"></path></g><g clip-path="url(#SvgjsClipPath1001ae1acf5b-dcf2-497b-9824-21c33c104812)"><path d=" M 8.124987334315598 -0.47153436257110215 C 7.888227025818232 -0.47256548986337066 7.680154487014464 -0.6287235570484988 7.613016457105693 -0.8557675876752313 C 7.530843223178747 -1.1386282923759463 7.693101104786416 -1.4346355922373704 7.975756019768169 -1.5175139227855352 C 8.02437297152041 -1.5316900879557274 8.07475385446202 -1.5389037143769162 8.125395441830317 -1.538939567308062 C 8.362154689586408 -1.5379250740153143 8.570245024182721 -1.381802038707133 8.637434336959348 -1.154774360123052 C 8.6774419393005 -1.018954648123124 8.661499384746381 -0.8727778307137424 8.59315467161277 -0.7487754009007936 C 8.525422203169583 -0.6244535912083418 8.410776246685217 -0.5323890429441391 8.274762792215995 -0.4930960429318727 C 8.226113809282818 -0.478837675941044 8.175682725613814 -0.47157761530386466 8.124987334315602 -0.47153436257110215 Z M 8.12539544183031 -1.4365045811146144 C 8.084466218131382 -1.4364696212724475 8.0437488059874 -1.4306299474272786 8.004459581636445 -1.419160011739228 C 7.776081328141538 -1.3521873621263394 7.644981905022456 -1.1130199067679953 7.711370368151987 -0.8844711495435185 C 7.765427567466549 -0.7008466565277338 7.933573284905001 -0.5744539457217552 8.124987334315602 -0.5735612412498412 C 8.165944857638337 -0.5735804862622356 8.206690107293534 -0.5794437712041827 8.245991212428585 -0.5909738285443407 C 8.35608224001766 -0.6227398704735929 8.44884089308105 -0.6973191995610133 8.503507054213717 -0.7980203743430714 C 8.558792219137944 -0.8981957272597612 8.571676393382024 -1.016333317334249 8.539284479670403 -1.1260707982547702 C 8.484906860587891 -1.3094816022166853 8.316696156142251 -1.4355359674216324 8.125395441830317 -1.436232509438141 Z" fill="#2f0e54" transform="matrix(1,0,0,1,0,0)" fill-rule="nonzero"></path></g><g clip-path="url(#SvgjsClipPath1001ae1acf5b-dcf2-497b-9824-21c33c104812)"><path d=" M 4.27694157806829 -2.199189508197743 L 3.9102569760968993 -2.658650551847666 C 3.7410173392559685 -2.5857852578577356 3.613738158454711 -2.440384041298241 3.5639097319421427 -2.262990316331515 C 3.522304488673624 -2.0834834341525896 3.5639979326819495 -1.894788105124511 3.677363621032902 -1.7495230449009842 L 4.219806526008195 -1.9760227155677805 L 4.231369572258457 -2.0919932676659485 Z" fill="#fabf25" transform="matrix(1,0,0,1,0,0)" fill-rule="nonzero"></path></g><g clip-path="url(#SvgjsClipPath1001ae1acf5b-dcf2-497b-9824-21c33c104812)"><path d=" M 4.903862738589577 -2.124981958438746 L 5.446305643564874 -2.3514816291055425 C 5.559665723054864 -2.2062137902956414 5.601335844577924 -2.017510882450658 5.559691514736511 -1.8380143576750116 C 5.509863088223949 -1.6606206327082846 5.382583907422686 -1.5152194161487937 5.2133442705817545 -1.4423541221588643 L 4.846659668610363 -1.9017471478896644 L 4.892231674420204 -2.0090114063405773 Z" fill="#fabf25" transform="matrix(1,0,0,1,0,0)" fill-rule="nonzero"></path></g><g clip-path="url(#SvgjsClipPath1001ae1acf5b-dcf2-497b-9824-21c33c104812)"><path d=" M 5.3164594359663955 -1.3188335810384668 C 5.300900253482947 -1.3188598038235142 5.2861919563172215 -1.3259387971872902 5.27646489952433 -1.3380826521491915 L 4.9097122796338235 -1.7975436957991109 C 4.89802828762727 -1.8123090626830916 4.8954144598858464 -1.8323048449049946 4.902910487721907 -1.8495774039252684 L 4.945421687171381 -1.9495637450304324 L 4.956236536311325 -2.0577802543490167 C 4.958120286321391 -2.076499718048982 4.970102608069249 -2.092684989255245 4.987456761187019 -2.0999513642028944 L 5.529967684081435 -2.3264510348696934 C 5.550514874699576 -2.33501191765533 5.57423904390164 -2.3293214158884386 5.588667148281265 -2.3123713256120286 C 5.713322710571021 -2.154663836875832 5.7590225670731146 -1.9486136066821773 5.71273183275462 -1.7529919587760636 C 5.659229279227801 -1.5592170262602965 5.520083233025523 -1.4005294035297888 5.3349603099668075 -1.3221664590753068 C 5.329050541174348 -1.3199281034861414 5.322778799533261 -1.3187982676758017 5.316459435966392 -1.3188335810384633 Z M 5.008882405709559 -1.8375382322411724 L 5.331287342334374 -1.4336478285116057 C 5.469113808183058 -1.504361907085924 5.571250750718455 -1.6292972742944016 5.613153599164171 -1.7784306605266282 C 5.648051003105693 -1.9293739759951176 5.618473586040826 -2.088032170700556 5.531532096221183 -2.216262005896656 L 5.0545904473576355 -2.0171735566348747 L 5.0460201895486225 -1.9316070143829753 C 5.0455331370797465 -1.926451872752768 5.044248145617244 -1.9214036920072184 5.042211186077956 -1.9166430721767584 Z" fill="#2f0e54" transform="matrix(1,0,0,1,0,0)" fill-rule="nonzero"></path></g><g clip-path="url(#SvgjsClipPath1001ae1acf5b-dcf2-497b-9824-21c33c104812)"><path d=" M 3.5647259469715715 -1.7676838293058 C 3.5497112815157017 -1.7676467796969684 3.5354469618052877 -1.7742437163867795 3.525751679316296 -1.7857085778723736 C 3.4010681499600284 -1.9434027769553222 3.3553652972637837 -2.14946651630508 3.401686994842954 -2.3450879447083377 C 3.4551895483697597 -2.5388628772241084 3.594335594572041 -2.6975504999546125 3.7794585176307565 -2.7759134444090945 C 3.8002672500714394 -2.783732476710428 3.8237445242994625 -2.7773146237088415 3.8376818563967565 -2.7599972513352107 L 4.204434476287263 -2.3005362076852878 C 4.216075644614909 -2.2857527803496023 4.218686268902962 -2.2657815045459824 4.21123626819918 -2.248502499559134 L 4.16865705083059 -2.1485161584539654 L 4.1578422016906424 -2.0402996491353846 C 4.155958451680583 -2.0215801854354165 4.1439761299327245 -2.0053949142291536 4.126621976814951 -1.9981285392815042 L 3.584179071839651 -1.7716288686147044 C 3.578013472179257 -1.769059600596547 3.5714053545377316 -1.7677194928230895 3.564725946971568 -1.7676838293058 Z M 3.782859413586716 -2.664432074972792 C 3.644980538527229 -2.5937654857394126 3.54280630172068 -2.4688146518739362 3.5009251388378027 -2.3196492429577704 C 3.465977071476766 -2.168707018364014 3.4955582847741975 -2.010028460034368 3.5825466417807905 -1.8818178975877462 L 4.0594202727252195 -2.0809063468495275 L 4.067990530534232 -2.1664728891014295 C 4.06846877837089 -2.1716295538534576 4.069754113145477 -2.17667908332505 4.071799534004905 -2.1814368313076464 L 4.105808493564481 -2.260541671243229 Z" fill="#2f0e54" transform="matrix(1,0,0,1,0,0)" fill-rule="nonzero"></path></g><g clip-path="url(#SvgjsClipPath1001ae1acf5b-dcf2-497b-9824-21c33c104812)"><path d=" M 5.049489103423698 -2.027648316179225 C 5.0177540095590984 -1.9037263890092682 4.938083294389067 -1.7974904815767534 4.828008950975329 -1.732318408277326 C 4.717934607561594 -1.6671463349778985 4.586476409482281 -1.6483784623906041 4.462562479344474 -1.680144767399443 C 4.338637825489206 -1.711881145512443 4.232397102225795 -1.7915487194048216 4.167214076089589 -1.9016200173557616 C 4.102031049953384 -2.0116913153067015 4.08324568800711 -2.143149003503239 4.114990912645569 -2.2670713914786687 C 4.181110273224708 -2.5251413459290406 4.44391301853038 -2.68075224146925 4.7019855546439135 -2.6146429581775728 C 4.825912650429938 -2.5828925373529277 4.93214908507948 -2.5032084095179234 4.997320054602386 -2.393123174250225 C 5.062491024125291 -2.283037938982523 5.081257046200648 -2.151570921478747 5.049489103423698 -2.0276483161792216 Z" fill="#fa65a3" transform="matrix(1,0,0,1,0,0)" fill-rule="nonzero"></path></g><g clip-path="url(#SvgjsClipPath1001ae1acf5b-dcf2-497b-9824-21c33c104812)"><path d=" M 4.557447476515701 -1.5153373493737199 C 4.512636490799224 -1.5153807519417342 4.468008095901572 -1.521047849706517 4.424608480475985 -1.5322057933152715 C 4.139357999886466 -1.6056224195822129 3.967374556044343 -1.8960955184705552 4.0401712016144975 -2.1815048492267595 C 4.10043674019497 -2.4175756566461635 4.313057412426561 -2.5827668557726273 4.556699279405391 -2.5828105720298016 C 4.601505272983603 -2.5827558985582293 4.646129465133275 -2.5771121835244513 4.689538275445108 -2.566010146007372 C 4.8266624003893295 -2.531184971418363 4.944197364627239 -2.443033748239933 5.0160242872170695 -2.3211456371783994 C 5.088427673820012 -2.199474635783055 5.109194509842111 -2.053910870080988 5.073703482630122 -1.9168471259341162 C 5.013584387878439 -1.6807655006591258 4.801063606403493 -1.5154808928796015 4.557447476515701 -1.5153373493737226 Z M 4.556699279405389 -2.480239549998112 C 4.359885112808935 -2.480182053124075 4.188131254860364 -2.346754361684317 4.139409345609346 -2.1560661474761984 C 4.080588726220267 -1.9254540338984283 4.219559913683517 -1.6907518729822861 4.450047182226546 -1.6314439373101202 C 4.4851369532734635 -1.6224328925904254 4.52121916627682 -1.6178626312853774 4.557447476515705 -1.6178403534862893 C 4.754261134842126 -1.6178565199851072 4.926017777779388 -1.751308127458044 4.974669392392624 -1.9420137560082065 C 5.003316130881339 -2.052700200428901 4.986541535377742 -2.1702448112570254 4.928077117796003 -2.2684997677801677 C 4.8700299862349015 -2.3670661355839018 4.774983438257129 -2.4383326789014275 4.6640995736945445 -2.4664319124169234 C 4.629018548500161 -2.475511779172944 4.592936199790554 -2.4801506118442855 4.556699279405391 -2.4802395499981147 Z" fill="#2f0e54" transform="matrix(1,0,0,1,0,0)" fill-rule="nonzero"></path></g><g clip-path="url(#SvgjsClipPath1001ae1acf5b-dcf2-497b-9824-21c33c104812)"><path d=" M 6.088870925483568 -7.961667615972913 L 4.1658683161467005 -7.961667615972913 C 4.150691762457399 -7.961670680307468 4.136295937545819 -7.968395373605267 4.126553958895829 -7.980032454135085 C 4.11680706311334 -7.9917054174735425 4.112767874110845 -8.00711417552009 4.115535055998526 -8.022067528150727 C 4.204762110748009 -8.510735070298898 4.630622820562946 -8.865714419700964 5.127369620815136 -8.8654897252283 C 5.6242233993467226 -8.865684488423224 6.050122262622436 -8.510530186263018 6.139204185631746 -8.021727438555132 C 6.141971367519427 -8.006774085924496 6.137932178516932 -7.991365327877948 6.128185282734443 -7.979692364539492 C 6.118378621067348 -7.968182039176923 6.10399215457416 -7.961586167860842 6.088870925483568 -7.961667615972913 Z M 4.229397052603993 -8.064102602166367 L 6.0250701173497925 -8.064102602166367 C 5.921304900858343 -8.475342080157393 5.551362246665908 -8.763476961047726 5.127233584976894 -8.763394828630444 C 4.7031809668888 -8.763383482866624 4.333347724293386 -8.475268337975855 4.229601106361354 -8.064102602166367 Z" fill="#2f0e54" transform="matrix(1,0,0,1,0,0)" fill-rule="nonzero"></path></g><g clip-path="url(#SvgjsClipPath1001ae1acf5b-dcf2-497b-9824-21c33c104812)"><path d=" M 4.315847827804449 -5.463437464645314 C 4.305085499196714 -5.463442993052791 4.2945954286329195 -5.466820748200315 4.285851925472906 -5.473096009160234 C 4.270093398776799 -5.4845525366416314 4.262187290633504 -5.5039488552865095 4.2654465497371525 -5.523157197631935 L 4.313059093120563 -5.8051594902999675 L 4.10771299529982 -6.004179921642626 C 4.09371478120444 -6.017767680355775 4.08865113786624 -6.03812774627813 4.094653554828941 -6.056689755202617 C 4.100625409314926 -6.075234611036134 4.116601626723067 -6.0887853960984835 4.135872413815151 -6.091650965629865 L 4.418690921512616 -6.133550003807269 L 4.5446601077213 -6.390317648482095 C 4.553219052864732 -6.407843510432881 4.571000099081147 -6.418976450348795 4.590504185207611 -6.419021210350382 L 4.590504185207611 -6.419021210350382 C 4.609947238300152 -6.419027502139777 4.627712651912834 -6.408009782718262 4.636348262693922 -6.390589720158571 L 4.763609789365867 -6.1345022546749375 L 5.046700368739806 -6.094167628637277 C 5.06600930585085 -6.091402055223385 5.082084426273943 -6.077935847786993 5.088191299402497 -6.059410471967389 C 5.094240222532628 -6.040877511606521 5.089288519953633 -6.020517585576925 5.075403930608095 -6.006832620488279 L 4.871350173250615 -5.806655884520591 L 4.918078483685478 -5.538665283191104 C 4.921502702567349 -5.53165543412613 4.923271281474077 -5.523952807571817 4.923247845538538 -5.516151351962662 C 4.921619223341433 -5.488149415387843 4.898972051821657 -5.465973446396438 4.870942065735902 -5.464933858865938 C 4.86241293314981 -5.465227301600315 4.854024275313108 -5.467191587870617 4.846251561095651 -5.470715381991068 L 4.5928167944576614 -5.603078252596949 L 4.340062207010866 -5.469355023608683 C 4.332605282662943 -5.465407838482699 4.3242847716204835 -5.463374455166143 4.315847827804449 -5.463437464645314 Z M 4.253475395972179 -6.005472262105894 L 4.4035909434681635 -5.859913915190893 C 4.415707469201259 -5.848186866211954 4.421256021671322 -5.831235783895155 4.418418849836142 -5.8146139810575335 L 4.3836616931662515 -5.608451668207361 L 4.568466379413007 -5.706261435900712 C 4.583378417000075 -5.7140632641134985 4.601166885209352 -5.7140632641134985 4.6160789227964205 -5.706261435900712 L 4.801427752396126 -5.609471936994148 L 4.765514291101208 -5.815430196086962 C 4.762620739341766 -5.832025639332155 4.76806161318646 -5.8489838769696 4.7800701257927125 -5.860798148139441 L 4.929709547854857 -6.00724072800299 L 4.722731019975257 -6.036692486981586 C 4.706029062635973 -6.03905770512502 4.691558200919513 -6.04948486383108 4.684028823996449 -6.064579833820439 L 4.590980310641447 -6.251833165155487 L 4.498952066073221 -6.064103708386607 C 4.491522743716218 -6.048976219718866 4.4771268553583745 -6.0384717994153485 4.460453923851774 -6.036012307790394 Z" fill="#2f0e54" transform="matrix(1,0,0,1,0,0)" fill-rule="nonzero"></path></g><g clip-path="url(#SvgjsClipPath1001ae1acf5b-dcf2-497b-9824-21c33c104812)"><path d=" M 1.176208699183174 -6.104710406100747 C 1.260525888111005 -6.072168072126352 1.32846196497519 -6.007463243640662 1.36507134154213 -5.924830650818139 C 1.4016807181090698 -5.842198057995619 1.4039644496889152 -5.748406747421932 1.3714201270551631 -5.664090326046834 C 1.3036247064820254 -5.488536681585466 1.1063791366699018 -5.4011494038206 0.9308000470012461 -5.468878898174846 C 0.8464711997755408 -5.501406387537351 0.7785232535597312 -5.566109585150471 0.7419116357198375 -5.648747236846235 C 0.7053000178799406 -5.731384888542001 0.7030254686458006 -5.82518389494447 0.7355886191292601 -5.909498978228758 C 0.7681309531036575 -5.9938161671565915 0.8328357815893452 -6.061752244020777 0.9154683744118661 -6.098361620587715 C 0.9981009672343903 -6.134970997154656 1.091892277808076 -6.137254728734497 1.176208699183174 -6.104710406100747 Z" fill="#e4f0fa" transform="matrix(1,0,0,1,0,0)" fill-rule="nonzero"></path></g><g clip-path="url(#SvgjsClipPath1001ae1acf5b-dcf2-497b-9824-21c33c104812)"><path d=" M 9.707424222622842 -5.084441619313359 C 9.791753069848552 -5.051914129950857 9.859701016064358 -4.9872109323377325 9.896312633904254 -4.904573280641968 C 9.932924251744147 -4.821935628946204 9.935198800978291 -4.728136622543733 9.902635650494828 -4.643821539259445 C 9.870108161132324 -4.559492692033733 9.8054049635192 -4.491544745817927 9.722767311823432 -4.454933127978033 C 9.640129660127672 -4.4183215101381395 9.546330653725203 -4.416046960903996 9.462015570440915 -4.448610111387459 C 9.377698381513083 -4.481152445361853 9.3097623046489 -4.545857273847541 9.273152928081961 -4.628489866670065 C 9.236543551515018 -4.711122459492586 9.234259819935177 -4.804913770066271 9.26680414256893 -4.8892301914413725 C 9.33459956314206 -5.064783835902739 9.531845132954183 -5.152171113667604 9.707424222622842 -5.084441619313359 Z" fill="#e4f0fa" transform="matrix(1,0,0,1,0,0)" fill-rule="nonzero"></path></g><g clip-path="url(#SvgjsClipPath1001ae1acf5b-dcf2-497b-9824-21c33c104812)"><path d=" M 2.0486065298055114 -5.282509799788352 C 2.1098889412903032 -5.258863002552474 2.1592666949017314 -5.211838787256726 2.185875810907473 -5.151783313548667 C 2.2124849269132083 -5.091727839840607 2.2141454044561706 -5.023561263058277 2.1904919090880792 -4.962281436575351 C 2.1668593799342903 -4.901003924277035 2.1198479752085904 -4.851627042064375 2.059803469109914 -4.825017133476772 C 1.9997589630112311 -4.798407224889169 1.931601898572833 -4.796744925738685 1.8703315637941964 -4.820396057292783 C 1.8090491523094079 -4.844042854528663 1.7596713986979797 -4.891067069824408 1.733062282692238 -4.9511225435324695 C 1.7064531666865026 -5.011178017240527 1.7047926891435405 -5.079344594022858 1.728446184511632 -5.140624420505786 C 1.7776886307120925 -5.268202278940355 1.9210165715851375 -5.331720886261618 2.0486065298055114 -5.282509799788352 Z" fill="#fabf25" transform="matrix(1,0,0,1,0,0)" fill-rule="nonzero"></path></g><g clip-path="url(#SvgjsClipPath1001ae1acf5b-dcf2-497b-9824-21c33c104812)"><path d=" M 8.214430897957293 -2.7829873079974883 C 8.342017629907144 -2.7337156785363206 8.405531785244063 -2.590367335618672 8.356316277239861 -2.4627589447844898 C 8.307046866424049 -2.335170992527564 8.163678231699178 -2.2716782985170827 8.036087914026858 -2.3209415834210407 C 7.974810401728539 -2.34457411257483 7.925433519515885 -2.3915855173005296 7.89882361092828 -2.4516300233992094 C 7.872213702340679 -2.5116745294978893 7.870551403190193 -2.5798315939362872 7.894202534744291 -2.641101928714921 C 7.917849331980167 -2.702384340199716 7.964873547275915 -2.751762093811144 8.024929020983974 -2.778371209816882 C 8.084984494692035 -2.8049803258226174 8.153151071474362 -2.80664080336558 8.214430897957293 -2.7829873079974883 Z" fill="#fabf25" transform="matrix(1,0,0,1,0,0)" fill-rule="nonzero"></path></g><g clip-path="url(#SvgjsClipPath1001ae1acf5b-dcf2-497b-9824-21c33c104812)"><path d=" M 1.234432037949174 -4.097705666651716 C 1.0118273830640467 -4.097930554685602 0.8314162317475986 -4.278311277405098 0.8311537954916813 -4.500915891190093 C 0.8313786836102421 -4.723558111308571 1.011789858923759 -4.9039997152231605 1.2344320379490987 -4.904262151566709 C 1.457074216974514 -4.903999715223203 1.6374853922880668 -4.72355811130865 1.63771028040667 -4.500915891190093 C 1.6374478441507332 -4.278311277405066 1.4570366928342717 -4.097930554685583 1.2344320379491411 -4.097705666651716 Z M 1.234432037949174 -4.801759147454136 C 1.0683585896296603 -4.801571726613491 0.9337762025257761 -4.666989339509607 0.9335887816851354 -4.500915891190093 C 0.9338136719840342 -4.334869006131495 1.0683851062840897 -4.200327997206604 1.2344320379491904 -4.200140652845171 C 1.4004679210331767 -4.200328073594345 1.5350198555449226 -4.334880008106091 1.5352072762940998 -4.500915891190091 C 1.5350573369450433 -4.666978336297871 1.4004944449078847 -4.801571658658855 1.2344320379491545 -4.801759147454136 Z" fill="#2f0e54" transform="matrix(1,0,0,1,0,0)" fill-rule="nonzero"></path></g><g clip-path="url(#SvgjsClipPath1001ae1acf5b-dcf2-497b-9824-21c33c104812)"><path d=" M 8.925966349862819 -3.208167320411354 C 8.703324129744262 -3.2083922085299568 8.522882525829704 -3.38880338384351 8.522620089486203 -3.61144556286885 C 8.522882525829704 -3.8340877418941828 8.703324129744257 -4.014498917207739 8.925966349862811 -4.0147238053263425 C 9.148555444697575 -4.014423974281689 9.328914288961423 -3.8340347051115895 9.329176574401195 -3.61144556286885 C 9.328914288961434 -3.388856420626123 9.148555444697593 -3.2084671514560172 8.925966349862835 -3.208167320411354 Z M 8.925966349862819 -3.912288819132888 C 8.759877379639965 -3.912138817713341 8.62527309501833 -3.777534533091706 8.625123093598777 -3.61144556286885 C 8.625310582394041 -3.4453831559101653 8.759903904755012 -3.310820263872997 8.925966349862769 -3.3106703245239233 C 9.092002232946822 -3.310857745273098 9.226554167458566 -3.445409679784847 9.22674158820774 -3.6114455628688464 C 9.226554243846318 -3.777492494533921 9.092013234921426 -3.9120639288339865 8.925966349862845 -3.912288819132888 Z" fill="#2f0e54" transform="matrix(1,0,0,1,0,0)" fill-rule="nonzero"></path></g><g clip-path="url(#SvgjsClipPath1001ae1acf5b-dcf2-497b-9824-21c33c104812)"><path d=" M 3.4350157752113355 -5.743127148063299 L 2.7626586447184467 -6.094235646556399 L 2.0922740338800137 -5.739454180430864 L 2.2184472738460537 -6.487379219065139 L 1.6738277954589462 -7.015334307268052 L 2.4241334612623913 -7.126475587108759 L 2.757965408299225 -7.807607029168019 L 3.095538340887612 -7.128312070924976 L 3.8464561679631295 -7.021319884150539 L 3.3047614600981454 -6.490372007506382 L 3.4350157752113355 -5.743127148063299 Z" fill="#fabf25" transform="matrix(1,0,0,1,0,0)" fill-rule="nonzero"></path></g><g clip-path="url(#SvgjsClipPath1001ae1acf5b-dcf2-497b-9824-21c33c104812)"><path d=" M 1.9552179268549088 -5.566960737544676 C 1.9444505401933203 -5.566933950692087 1.9339507796684765 -5.570314825963127 1.9252220245233655 -5.576619282059596 C 1.90948964693979 -5.588096280628872 1.901590398412757 -5.607475770348529 1.9048166487876121 -5.626680470531296 L 2.033642587599301 -6.3901816126438575 L 1.4776641167192932 -6.929155603744076 C 1.4636659026239136 -6.942743362457225 1.4586022592857124 -6.96310342837958 1.4646046762484142 -6.981665437304066 C 1.470562612214266 -7.000219597049616 1.4865458402329648 -7.013776328405411 1.505823535234624 -7.016626647731314 L 2.271773322435477 -7.130012518902953 L 2.612543097222465 -7.825359706058119 C 2.621108783097059 -7.842870365642055 2.6388937419343153 -7.853979368120522 2.658387174708776 -7.853995250007284 L 2.658387174708776 -7.853995250007284 C 2.677839525710924 -7.854040234206232 2.6956336904652343 -7.843047394646902 2.70429927011421 -7.8256317777345945 L 3.0488780483718707 -7.132189092314767 L 3.8154399968447907 -7.022952314209398 C 3.8347693805338214 -7.020232628944348 3.850865648781154 -7.006748705871583 3.8569309275074812 -6.98819515753951 C 3.862984430112371 -6.969671576989553 3.858001393386053 -6.949317585705341 3.8440755407939537 -6.935685323979516 L 3.291089858355193 -6.393718544438059 L 3.4216842630639817 -5.644569183259637 C 3.4251084819458484 -5.637559334194663 3.4268770608525765 -5.629856707640348 3.4268536249170376 -5.622055252031195 C 3.4268750507477224 -5.608287095041305 3.4213450257295004 -5.595091690171348 3.411513923304603 -5.585452601465681 C 3.4016828208797025 -5.575813512760016 3.388380919605598 -5.57054480239805 3.3746158630335255 -5.570837758934471 C 3.366084887144382 -5.5712773491773655 3.3577007263992438 -5.5732351889118075 3.3498573404741543 -5.576619282059598 L 2.6635565365618388 -5.935141733736687 L 1.9792282523039704 -5.572878296508041 C 1.9718322644976471 -5.568963807173647 1.9635859016824015 -5.566931417471306 1.9552179268549055 -5.566960737544676 Z M 1.6234265173916498 -6.93044794420734 L 2.124174437946902 -6.445004055453902 C 2.136283666676446 -6.433298623115976 2.14185459450248 -6.416382335425061 2.139070362233996 -6.399772139239662 L 2.0230317922167114 -5.712042959025842 L 2.639478193193651 -6.038528970797808 C 2.65439023078072 -6.046330799010596 2.6721786989899963 -6.046330799010596 2.687090736577065 -6.038528970797808 L 3.305237585531981 -5.71564790873916 L 3.1854580299631405 -6.402628891842667 C 3.182582372520246 -6.419256258349996 3.1880475300680877 -6.436236375754456 3.2000818825737607 -6.448064861814267 L 3.6981090863642425 -6.936229467332471 L 3.007727207304777 -7.034583378378775 C 2.9910066673226052 -7.036951552449412 2.9765281189102004 -7.047409695503013 2.9690250113259755 -7.06253874313675 L 2.65865924638525 -7.687079276488869 L 2.351762395319604 -7.060838295158771 C 2.344340866293239 -7.04569236123144 2.329946691821224 -7.035163760115867 2.3132642530981578 -7.032678876643439 Z" fill="#2f0e54" transform="matrix(1,0,0,1,0,0)" fill-rule="nonzero"></path></g></g></g><defs><clipPath id="SvgjsClipPath1002"><path d=" M 0.7125985624669884 -9.116815936373596 h 9.212619037175399 v 8.866815936373596 h -9.212619037175399 Z"></path></clipPath><clipPath id="SvgjsClipPath1001ae1acf5b-dcf2-497b-9824-21c33c104812"><path d=" M 0.7125985624669884 -9.116815936373596 L 9.925217599642387 -9.116815936373596 L 9.925217599642387 -0.2500000000000018 L 0.7125985624669884 -0.2500000000000018 Z"></path></clipPath></defs></svg>